<svg width="139" height="132" viewBox="0 0 139 132" fill="none" xmlns="http://www.w3.org/2000/svg">
<path d="M64.1363 77.6305C68.1357 78.6138 72.2861 78.4105 76.1449 77.0423C79.5446 75.8815 82.6107 73.8275 85.0718 71.0619C86.9814 68.9152 88.4255 66.3344 89.303 63.5001C89.8748 61.673 90.1588 59.7497 90.1433 57.8094C90.1104 56.4551 89.9319 55.7256 89.8343 55.7279C89.5451 55.7634 89.786 58.7396 88.0687 63.0833C87.0625 65.6259 85.5886 67.9137 83.7349 69.8099C81.3937 72.1738 78.5558 73.8924 75.4545 74.8246C72.0158 75.9249 68.3473 75.9925 64.8389 75.0202C61.4106 74.1438 58.3333 72.0511 56.103 69.0795C55.1338 67.738 54.4168 66.2072 53.9935 64.5758C53.5703 62.9444 53.4492 61.2447 53.6372 59.5751C54.1419 56.5751 55.541 53.8534 57.6225 51.8219C59.3255 50.0651 61.2551 48.5827 63.3536 47.4189C64.9103 46.5495 66.5254 45.8038 68.186 45.1878C70.0396 44.5294 71.9255 43.9762 73.8361 43.5307L73.9851 43.5124C73.6998 44.0869 73.1632 44.9331 72.851 45.5784C72.3015 46.6092 71.8402 47.5618 71.4777 48.377C70.7877 50.0031 70.4877 51.1093 70.8019 51.3501C71.1161 51.5909 71.9677 50.7735 73.0881 49.3931C73.6521 48.6977 74.2775 47.8502 74.9427 46.8918C75.2747 46.4079 75.6062 45.847 75.9569 45.3704C76.1769 45.0453 76.3696 44.6993 76.5327 44.3364C76.7397 43.8487 76.8326 43.3115 76.8031 42.7714C76.7013 41.7907 76.2483 40.8848 75.5414 40.2481C75.0325 39.7743 74.4805 39.3578 73.8943 39.0053C72.9757 38.3919 72.0009 37.885 70.9865 37.4934C69.2275 36.8616 68.0392 36.8919 67.9263 37.2044C67.8135 37.5169 68.7393 38.174 70.1236 39.16C70.8157 39.6531 71.6259 40.2376 72.4862 40.9412L72.8922 41.2767C70.9747 41.3875 69.0804 41.743 67.2487 42.3357C65.3735 42.9123 63.5554 43.6774 61.818 44.621C59.4071 45.9046 57.1953 47.5759 55.2565 49.5788C54.0752 50.81 53.0504 52.2054 52.2077 53.7295C51.3244 55.4016 50.7507 57.2481 50.5181 59.1681C50.3069 61.2295 50.4823 63.3237 51.0338 65.3263C51.5853 67.3289 52.5018 69.1991 53.7286 70.8257C56.4281 74.2919 60.1191 76.6884 64.1977 77.623" fill="black"/>
<path d="M12.1689 90.8057C12.1689 89.4814 12.3447 88.21 12.6963 86.9912C13.0537 85.7725 13.584 84.665 14.2871 83.6689C14.9902 82.6729 15.7197 81.9697 16.4756 81.5596L16.8096 82.6318C15.9541 83.2881 15.251 84.29 14.7002 85.6377C14.1553 86.9854 13.8564 88.4941 13.8037 90.1641L13.7949 90.9111C13.7949 93.1729 14.208 95.1357 15.0342 96.7998C15.5322 97.7959 16.124 98.5752 16.8096 99.1377L16.4756 100.131C15.6963 99.6973 14.9521 98.9707 14.2432 97.9512C12.8604 95.959 12.1689 93.5771 12.1689 90.8057ZM17.9873 91.166C17.9873 89.6719 18.3301 88.4912 19.0156 87.624C19.7012 86.751 20.6211 86.3145 21.7754 86.3145C22.9004 86.3145 23.7881 86.6924 24.4385 87.4482L24.5088 86.4902H26.0029V99.6562H24.377V95.1211C23.7207 95.8242 22.8477 96.1758 21.7578 96.1758C20.6094 96.1758 19.6924 95.7305 19.0068 94.8398C18.3271 93.9434 17.9873 92.7568 17.9873 91.2803V91.166ZM19.6133 91.3506C19.6133 92.4404 19.8418 93.2959 20.2988 93.917C20.7617 94.5381 21.3828 94.8486 22.1621 94.8486C23.1289 94.8486 23.8672 94.4209 24.377 93.5654V88.9072C23.8613 88.0693 23.1289 87.6504 22.1797 87.6504C21.3945 87.6504 20.7705 87.9639 20.3076 88.5908C19.8447 89.2119 19.6133 90.1318 19.6133 91.3506ZM36.8311 96H28.4463V94.8311L32.876 89.9092C33.5322 89.165 33.9834 88.5615 34.2295 88.0986C34.4814 87.6299 34.6074 87.1465 34.6074 86.6484C34.6074 85.9805 34.4053 85.4326 34.001 85.0049C33.5967 84.5771 33.0576 84.3633 32.3838 84.3633C31.5752 84.3633 30.9453 84.5947 30.4941 85.0576C30.0488 85.5146 29.8262 86.1533 29.8262 86.9736H28.2002C28.2002 85.7959 28.5781 84.8438 29.334 84.1172C30.0957 83.3906 31.1123 83.0273 32.3838 83.0273C33.5732 83.0273 34.5137 83.3408 35.2051 83.9678C35.8965 84.5889 36.2422 85.418 36.2422 86.4551C36.2422 87.7148 35.4395 89.2148 33.834 90.9551L30.4062 94.6729H36.8311V96ZM38.668 98.5488L37.7451 97.916C38.2959 97.1484 38.583 96.3574 38.6064 95.543V94.0752H40.1973V95.3496C40.1973 95.9414 40.0508 96.5332 39.7578 97.125C39.4707 97.7168 39.1074 98.1914 38.668 98.5488ZM42.5088 96V83.2031H46.6924C48.0811 83.2031 49.124 83.4902 49.8213 84.0645C50.5244 84.6387 50.876 85.4883 50.876 86.6133C50.876 87.2109 50.7061 87.7412 50.3662 88.2041C50.0264 88.6611 49.5635 89.0156 48.9775 89.2676C49.6689 89.4609 50.2139 89.8301 50.6123 90.375C51.0166 90.9141 51.2188 91.5586 51.2188 92.3086C51.2188 93.457 50.8467 94.3594 50.1025 95.0156C49.3584 95.6719 48.3066 96 46.9473 96H42.5088ZM44.1963 90.0146V94.6201H46.9824C47.7676 94.6201 48.3857 94.418 48.8369 94.0137C49.2939 93.6035 49.5225 93.041 49.5225 92.3262C49.5225 90.7852 48.6846 90.0146 47.0088 90.0146H44.1963ZM44.1963 88.6611H46.7451C47.4834 88.6611 48.0723 88.4766 48.5117 88.1074C48.957 87.7383 49.1797 87.2373 49.1797 86.6045C49.1797 85.9014 48.9746 85.3916 48.5645 85.0752C48.1543 84.7529 47.5303 84.5918 46.6924 84.5918H44.1963V88.6611ZM57.2217 90.8936C57.2217 92.2002 57.0488 93.4541 56.7031 94.6553C56.3633 95.8506 55.8389 96.9551 55.1299 97.9688C54.4268 98.9824 53.6885 99.7031 52.915 100.131L52.5723 99.1377C53.4746 98.4463 54.1982 97.374 54.7432 95.9209C55.2939 94.4619 55.5752 92.8447 55.5869 91.0693V90.7881C55.5869 89.5576 55.458 88.415 55.2002 87.3604C54.9424 86.2998 54.582 85.3506 54.1191 84.5127C53.6621 83.6748 53.1465 83.0215 52.5723 82.5527L52.915 81.5596C53.6885 81.9873 54.4238 82.7021 55.1211 83.7041C55.8242 84.7061 56.3486 85.8105 56.6943 87.0176C57.0459 88.2246 57.2217 89.5166 57.2217 90.8936ZM67.1621 88.8457H59.832V87.4307H67.1621V88.8457ZM67.1621 92.4932H59.832V91.0869H67.1621V92.4932ZM69.5439 90.8057C69.5439 89.4814 69.7197 88.21 70.0713 86.9912C70.4287 85.7725 70.959 84.665 71.6621 83.6689C72.3652 82.6729 73.0947 81.9697 73.8506 81.5596L74.1846 82.6318C73.3291 83.2881 72.626 84.29 72.0752 85.6377C71.5303 86.9854 71.2314 88.4941 71.1787 90.1641L71.1699 90.9111C71.1699 93.1729 71.583 95.1357 72.4092 96.7998C72.9072 97.7959 73.499 98.5752 74.1846 99.1377L73.8506 100.131C73.0713 99.6973 72.3271 98.9707 71.6182 97.9512C70.2354 95.959 69.5439 93.5771 69.5439 90.8057ZM75.3623 91.166C75.3623 89.6719 75.7051 88.4912 76.3906 87.624C77.0762 86.751 77.9961 86.3145 79.1504 86.3145C80.2754 86.3145 81.1631 86.6924 81.8135 87.4482L81.8838 86.4902H83.3779V99.6562H81.752V95.1211C81.0957 95.8242 80.2227 96.1758 79.1328 96.1758C77.9844 96.1758 77.0674 95.7305 76.3818 94.8398C75.7021 93.9434 75.3623 92.7568 75.3623 91.2803V91.166ZM76.9883 91.3506C76.9883 92.4404 77.2168 93.2959 77.6738 93.917C78.1367 94.5381 78.7578 94.8486 79.5371 94.8486C80.5039 94.8486 81.2422 94.4209 81.752 93.5654V88.9072C81.2363 88.0693 80.5039 87.6504 79.5547 87.6504C78.7695 87.6504 78.1455 87.9639 77.6826 88.5908C77.2197 89.2119 76.9883 90.1318 76.9883 91.3506ZM94.2061 96H85.8213V94.8311L90.251 89.9092C90.9072 89.165 91.3584 88.5615 91.6045 88.0986C91.8564 87.6299 91.9824 87.1465 91.9824 86.6484C91.9824 85.9805 91.7803 85.4326 91.376 85.0049C90.9717 84.5771 90.4326 84.3633 89.7588 84.3633C88.9502 84.3633 88.3203 84.5947 87.8691 85.0576C87.4238 85.5146 87.2012 86.1533 87.2012 86.9736H85.5752C85.5752 85.7959 85.9531 84.8438 86.709 84.1172C87.4707 83.3906 88.4873 83.0273 89.7588 83.0273C90.9482 83.0273 91.8887 83.3408 92.5801 83.9678C93.2715 84.5889 93.6172 85.418 93.6172 86.4551C93.6172 87.7148 92.8145 89.2148 91.209 90.9551L87.7812 94.6729H94.2061V96ZM96.043 98.5488L95.1201 97.916C95.6709 97.1484 95.958 96.3574 95.9814 95.543V94.0752H97.5723V95.3496C97.5723 95.9414 97.4258 96.5332 97.1328 97.125C96.8457 97.7168 96.4824 98.1914 96.043 98.5488ZM99.8838 96V83.2031H104.067C105.456 83.2031 106.499 83.4902 107.196 84.0645C107.899 84.6387 108.251 85.4883 108.251 86.6133C108.251 87.2109 108.081 87.7412 107.741 88.2041C107.401 88.6611 106.938 89.0156 106.353 89.2676C107.044 89.4609 107.589 89.8301 107.987 90.375C108.392 90.9141 108.594 91.5586 108.594 92.3086C108.594 93.457 108.222 94.3594 107.478 95.0156C106.733 95.6719 105.682 96 104.322 96H99.8838ZM101.571 90.0146V94.6201H104.357C105.143 94.6201 105.761 94.418 106.212 94.0137C106.669 93.6035 106.897 93.041 106.897 92.3262C106.897 90.7852 106.06 90.0146 104.384 90.0146H101.571ZM101.571 88.6611H104.12C104.858 88.6611 105.447 88.4766 105.887 88.1074C106.332 87.7383 106.555 87.2373 106.555 86.6045C106.555 85.9014 106.35 85.3916 105.939 85.0752C105.529 84.7529 104.905 84.5918 104.067 84.5918H101.571V88.6611ZM110.791 98.5488L109.868 97.916C110.419 97.1484 110.706 96.3574 110.729 95.543V94.0752H112.32V95.3496C112.32 95.9414 112.174 96.5332 111.881 97.125C111.594 97.7168 111.23 98.1914 110.791 98.5488ZM116.328 94.6201H122.393V96H114.632V83.2031H116.328V94.6201ZM127.815 90.8936C127.815 92.2002 127.643 93.4541 127.297 94.6553C126.957 95.8506 126.433 96.9551 125.724 97.9688C125.021 98.9824 124.282 99.7031 123.509 100.131L123.166 99.1377C124.068 98.4463 124.792 97.374 125.337 95.9209C125.888 94.4619 126.169 92.8447 126.181 91.0693V90.7881C126.181 89.5576 126.052 88.415 125.794 87.3604C125.536 86.2998 125.176 85.3506 124.713 84.5127C124.256 83.6748 123.74 83.0215 123.166 82.5527L123.509 81.5596C124.282 81.9873 125.018 82.7021 125.715 83.7041C126.418 84.7061 126.942 85.8105 127.288 87.0176C127.64 88.2246 127.815 89.5166 127.815 90.8936Z" fill="black"/>
</svg>
