<svg width="139" height="132" viewBox="0 0 139 132" fill="none" xmlns="http://www.w3.org/2000/svg">
<path d="M49.2288 50.7727C48.072 54.7253 48.094 58.8807 49.2926 62.7955C50.304 66.2425 52.2223 69.3953 54.8779 71.9747C56.9393 73.9761 59.4546 75.5314 62.2479 76.5317C64.0484 77.1827 65.9575 77.5503 67.8966 77.6195C69.2511 77.6457 69.9877 77.4992 69.9896 77.4016C69.9667 77.1111 66.9829 77.2219 62.7182 75.3167C60.2219 74.2007 58.0006 72.6283 56.187 70.6937C53.9276 68.2517 52.3343 65.3415 51.5383 62.2025C50.589 58.719 50.6815 55.0511 51.806 51.5884C52.831 48.2016 55.056 45.2185 58.1221 43.1199C59.5046 42.2102 61.0652 41.5607 62.7135 41.209C64.3618 40.8573 66.0652 40.8104 67.725 41.0711C70.7001 41.7062 73.3582 43.2226 75.2969 45.3908C76.9778 47.1688 78.3746 49.1612 79.4458 51.3085C80.2464 52.9017 80.9209 54.5477 81.4639 56.2336C82.0409 58.1142 82.5112 60.0224 82.873 61.9506L82.8848 62.1003C82.3233 61.7902 81.5013 61.2172 80.8703 60.8771C79.8644 60.2832 78.9328 59.7808 78.1342 59.383C76.5397 58.6228 75.4477 58.2748 75.1934 58.5782C74.9391 58.8817 75.7187 59.768 77.0488 60.9476C77.719 61.5414 78.5384 62.2032 79.4668 62.9096C79.9358 63.2624 80.4817 63.618 80.9425 63.9891C81.2578 64.2231 81.5951 64.4307 81.9505 64.6095C82.4287 64.8376 82.9613 64.9538 83.5022 64.9479C84.4864 64.889 85.4112 64.4759 86.0781 63.7975C86.5737 63.3098 87.0138 62.7765 87.3916 62.2062C88.0445 61.3151 88.5933 60.3634 89.0289 59.367C89.7368 57.6373 89.7583 56.4488 89.4511 56.3224C89.1438 56.196 88.447 57.0923 87.4015 58.4323C86.8787 59.1023 86.2594 59.8861 85.519 60.715L85.1661 61.1059C85.139 59.1854 84.8665 57.2774 84.3542 55.4216C83.8599 53.523 83.1749 51.6733 82.308 49.8964C81.1307 47.4318 79.5576 45.1492 77.6411 43.1249C76.4626 41.891 75.1133 40.8063 73.6273 39.898C71.9954 38.9425 70.1756 38.2888 68.2676 37.9727C66.2174 37.6718 64.1175 37.7557 62.0928 38.2193C60.068 38.683 58.1597 39.5169 56.4811 40.6717C52.9004 43.2174 50.3452 46.8003 49.2336 50.8342" fill="black"/>
<path d="M12.1689 26.8057C12.1689 25.4814 12.3447 24.21 12.6963 22.9912C13.0537 21.7725 13.584 20.665 14.2871 19.6689C14.9902 18.6729 15.7197 17.9697 16.4756 17.5596L16.8096 18.6318C15.9541 19.2881 15.251 20.29 14.7002 21.6377C14.1553 22.9854 13.8564 24.4941 13.8037 26.1641L13.7949 26.9111C13.7949 29.1729 14.208 31.1357 15.0342 32.7998C15.5322 33.7959 16.124 34.5752 16.8096 35.1377L16.4756 36.1309C15.6963 35.6973 14.9521 34.9707 14.2432 33.9512C12.8604 31.959 12.1689 29.5771 12.1689 26.8057ZM17.9873 27.166C17.9873 25.6719 18.3301 24.4912 19.0156 23.624C19.7012 22.751 20.6211 22.3145 21.7754 22.3145C22.9004 22.3145 23.7881 22.6924 24.4385 23.4482L24.5088 22.4902H26.0029V35.6562H24.377V31.1211C23.7207 31.8242 22.8477 32.1758 21.7578 32.1758C20.6094 32.1758 19.6924 31.7305 19.0068 30.8398C18.3271 29.9434 17.9873 28.7568 17.9873 27.2803V27.166ZM19.6133 27.3506C19.6133 28.4404 19.8418 29.2959 20.2988 29.917C20.7617 30.5381 21.3828 30.8486 22.1621 30.8486C23.1289 30.8486 23.8672 30.4209 24.377 29.5654V24.9072C23.8613 24.0693 23.1289 23.6504 22.1797 23.6504C21.3945 23.6504 20.7705 23.9639 20.3076 24.5908C19.8447 25.2119 19.6133 26.1318 19.6133 27.3506ZM33.79 32H32.1553V21.1631L28.877 22.3672V20.8906L33.5352 19.1416H33.79V32ZM38.668 34.5488L37.7451 33.916C38.2959 33.1484 38.583 32.3574 38.6064 31.543V30.0752H40.1973V31.3496C40.1973 31.9414 40.0508 32.5332 39.7578 33.125C39.4707 33.7168 39.1074 34.1914 38.668 34.5488ZM50.3047 27.3506C50.3047 28.8037 49.9707 29.9727 49.3027 30.8574C48.6348 31.7363 47.7383 32.1758 46.6133 32.1758C45.4121 32.1758 44.4834 31.751 43.8271 30.9014L43.748 32H42.2539V18.5H43.8799V23.5361C44.5361 22.7217 45.4414 22.3145 46.5957 22.3145C47.75 22.3145 48.6553 22.751 49.3115 23.624C49.9736 24.4971 50.3047 25.6924 50.3047 27.21V27.3506ZM48.6787 27.166C48.6787 26.0586 48.4648 25.2031 48.0371 24.5996C47.6094 23.9961 46.9941 23.6943 46.1914 23.6943C45.1191 23.6943 44.3486 24.1924 43.8799 25.1885V29.3018C44.3779 30.2979 45.1543 30.7959 46.209 30.7959C46.9883 30.7959 47.5947 30.4941 48.0283 29.8906C48.4619 29.2871 48.6787 28.3789 48.6787 27.166ZM56.1143 26.8936C56.1143 28.2002 55.9414 29.4541 55.5957 30.6553C55.2559 31.8506 54.7314 32.9551 54.0225 33.9688C53.3193 34.9824 52.5811 35.7031 51.8076 36.1309L51.4648 35.1377C52.3672 34.4463 53.0908 33.374 53.6357 31.9209C54.1865 30.4619 54.4678 28.8447 54.4795 27.0693V26.7881C54.4795 25.5576 54.3506 24.415 54.0928 23.3604C53.835 22.2998 53.4746 21.3506 53.0117 20.5127C52.5547 19.6748 52.0391 19.0215 51.4648 18.5527L51.8076 17.5596C52.5811 17.9873 53.3164 18.7021 54.0137 19.7041C54.7168 20.7061 55.2412 21.8105 55.5869 23.0176C55.9385 24.2246 56.1143 25.5166 56.1143 26.8936ZM66.0547 24.8457H58.7246V23.4307H66.0547V24.8457ZM66.0547 28.4932H58.7246V27.0869H66.0547V28.4932ZM68.4365 26.8057C68.4365 25.4814 68.6123 24.21 68.9639 22.9912C69.3213 21.7725 69.8516 20.665 70.5547 19.6689C71.2578 18.6729 71.9873 17.9697 72.7432 17.5596L73.0771 18.6318C72.2217 19.2881 71.5186 20.29 70.9678 21.6377C70.4229 22.9854 70.124 24.4941 70.0713 26.1641L70.0625 26.9111C70.0625 29.1729 70.4756 31.1357 71.3018 32.7998C71.7998 33.7959 72.3916 34.5752 73.0771 35.1377L72.7432 36.1309C71.9639 35.6973 71.2197 34.9707 70.5107 33.9512C69.1279 31.959 68.4365 29.5771 68.4365 26.8057ZM74.2549 27.166C74.2549 25.6719 74.5977 24.4912 75.2832 23.624C75.9688 22.751 76.8887 22.3145 78.043 22.3145C79.168 22.3145 80.0557 22.6924 80.7061 23.4482L80.7764 22.4902H82.2705V35.6562H80.6445V31.1211C79.9883 31.8242 79.1152 32.1758 78.0254 32.1758C76.877 32.1758 75.96 31.7305 75.2744 30.8398C74.5947 29.9434 74.2549 28.7568 74.2549 27.2803V27.166ZM75.8809 27.3506C75.8809 28.4404 76.1094 29.2959 76.5664 29.917C77.0293 30.5381 77.6504 30.8486 78.4297 30.8486C79.3965 30.8486 80.1348 30.4209 80.6445 29.5654V24.9072C80.1289 24.0693 79.3965 23.6504 78.4473 23.6504C77.6621 23.6504 77.0381 23.9639 76.5752 24.5908C76.1123 25.2119 75.8809 26.1318 75.8809 27.3506ZM90.0576 32H88.4229V21.1631L85.1445 22.3672V20.8906L89.8027 19.1416H90.0576V32ZM94.9355 34.5488L94.0127 33.916C94.5635 33.1484 94.8506 32.3574 94.874 31.543V30.0752H96.4648V31.3496C96.4648 31.9414 96.3184 32.5332 96.0254 33.125C95.7383 33.7168 95.375 34.1914 94.9355 34.5488ZM104.393 32C104.299 31.8125 104.223 31.4785 104.164 30.998C103.408 31.7832 102.506 32.1758 101.457 32.1758C100.52 32.1758 99.749 31.9121 99.1455 31.3848C98.5479 30.8516 98.249 30.1777 98.249 29.3633C98.249 28.373 98.624 27.6055 99.374 27.0605C100.13 26.5098 101.19 26.2344 102.556 26.2344H104.138V25.4873C104.138 24.9189 103.968 24.4678 103.628 24.1338C103.288 23.7939 102.787 23.624 102.125 23.624C101.545 23.624 101.059 23.7705 100.666 24.0635C100.273 24.3564 100.077 24.7109 100.077 25.127H98.4424C98.4424 24.6523 98.6094 24.1953 98.9434 23.7559C99.2832 23.3105 99.7402 22.959 100.314 22.7012C100.895 22.4434 101.53 22.3145 102.222 22.3145C103.317 22.3145 104.176 22.5898 104.797 23.1406C105.418 23.6855 105.74 24.4385 105.764 25.3994V29.7764C105.764 30.6494 105.875 31.3438 106.098 31.8594V32H104.393ZM101.694 30.7607C102.204 30.7607 102.688 30.6289 103.145 30.3652C103.602 30.1016 103.933 29.7588 104.138 29.3369V27.3857H102.863C100.871 27.3857 99.875 27.9688 99.875 29.1348C99.875 29.6445 100.045 30.043 100.385 30.3301C100.725 30.6172 101.161 30.7607 101.694 30.7607ZM108.26 34.5488L107.337 33.916C107.888 33.1484 108.175 32.3574 108.198 31.543V30.0752H109.789V31.3496C109.789 31.9414 109.643 32.5332 109.35 33.125C109.062 33.7168 108.699 34.1914 108.26 34.5488ZM116.794 26.8232H113.788V32H112.092V19.2031H116.328C117.77 19.2031 118.877 19.5312 119.65 20.1875C120.43 20.8438 120.819 21.7988 120.819 23.0527C120.819 23.8496 120.603 24.5439 120.169 25.1357C119.741 25.7275 119.144 26.1699 118.376 26.4629L121.382 31.8945V32H119.571L116.794 26.8232ZM113.788 25.4434H116.381C117.219 25.4434 117.884 25.2266 118.376 24.793C118.874 24.3594 119.123 23.7793 119.123 23.0527C119.123 22.2617 118.886 21.6553 118.411 21.2334C117.942 20.8115 117.263 20.5977 116.372 20.5918H113.788V25.4434ZM126.69 26.8936C126.69 28.2002 126.518 29.4541 126.172 30.6553C125.832 31.8506 125.308 32.9551 124.599 33.9688C123.896 34.9824 123.157 35.7031 122.384 36.1309L122.041 35.1377C122.943 34.4463 123.667 33.374 124.212 31.9209C124.763 30.4619 125.044 28.8447 125.056 27.0693V26.7881C125.056 25.5576 124.927 24.415 124.669 23.3604C124.411 22.2998 124.051 21.3506 123.588 20.5127C123.131 19.6748 122.615 19.0215 122.041 18.5527L122.384 17.5596C123.157 17.9873 123.893 18.7021 124.59 19.7041C125.293 20.7061 125.817 21.8105 126.163 23.0176C126.515 24.2246 126.69 25.5166 126.69 26.8936Z" fill="black"/>
</svg>
