<svg width="139" height="132" viewBox="0 0 139 132" fill="none" xmlns="http://www.w3.org/2000/svg">
<path d="M64.1363 77.6305C68.1357 78.6138 72.2861 78.4105 76.1449 77.0423C79.5446 75.8815 82.6107 73.8275 85.0718 71.0619C86.9814 68.9152 88.4255 66.3344 89.303 63.5001C89.8748 61.673 90.1588 59.7497 90.1433 57.8094C90.1104 56.4551 89.9319 55.7256 89.8343 55.7279C89.5451 55.7634 89.786 58.7396 88.0687 63.0833C87.0625 65.6259 85.5886 67.9137 83.7349 69.8099C81.3937 72.1738 78.5558 73.8924 75.4545 74.8246C72.0158 75.9249 68.3473 75.9925 64.8389 75.0202C61.4106 74.1438 58.3333 72.0511 56.103 69.0795C55.1338 67.738 54.4168 66.2072 53.9935 64.5758C53.5703 62.9444 53.4492 61.2447 53.6372 59.5751C54.1419 56.5751 55.541 53.8534 57.6225 51.8219C59.3255 50.0651 61.2551 48.5827 63.3536 47.4189C64.9103 46.5495 66.5254 45.8038 68.186 45.1878C70.0396 44.5294 71.9255 43.9762 73.8361 43.5307L73.9851 43.5124C73.6998 44.0869 73.1632 44.9331 72.851 45.5784C72.3015 46.6092 71.8402 47.5618 71.4777 48.377C70.7877 50.0031 70.4877 51.1093 70.8019 51.3501C71.1161 51.5909 71.9677 50.7735 73.0881 49.3931C73.6521 48.6977 74.2775 47.8502 74.9427 46.8918C75.2747 46.4079 75.6062 45.847 75.9569 45.3704C76.1769 45.0453 76.3696 44.6993 76.5327 44.3364C76.7397 43.8487 76.8326 43.3115 76.8031 42.7714C76.7013 41.7907 76.2483 40.8848 75.5414 40.2481C75.0325 39.7743 74.4805 39.3578 73.8943 39.0053C72.9757 38.3919 72.0009 37.885 70.9865 37.4934C69.2275 36.8616 68.0392 36.8919 67.9263 37.2044C67.8135 37.5169 68.7393 38.174 70.1236 39.16C70.8157 39.6531 71.6259 40.2376 72.4862 40.9412L72.8922 41.2767C70.9747 41.3875 69.0804 41.743 67.2487 42.3357C65.3735 42.9123 63.5554 43.6774 61.818 44.621C59.4071 45.9046 57.1953 47.5759 55.2565 49.5788C54.0752 50.81 53.0504 52.2054 52.2077 53.7295C51.3244 55.4016 50.7507 57.2481 50.5181 59.1681C50.3069 61.2295 50.4823 63.3237 51.0338 65.3263C51.5853 67.3289 52.5018 69.1991 53.7286 70.8257C56.4281 74.2919 60.1191 76.6884 64.1977 77.623" fill="black"/>
<path d="M12.1689 90.8057C12.1689 89.4814 12.3447 88.21 12.6963 86.9912C13.0537 85.7725 13.584 84.665 14.2871 83.6689C14.9902 82.6729 15.7197 81.9697 16.4756 81.5596L16.8096 82.6318C15.9541 83.2881 15.251 84.29 14.7002 85.6377C14.1553 86.9854 13.8564 88.4941 13.8037 90.1641L13.7949 90.9111C13.7949 93.1729 14.208 95.1357 15.0342 96.7998C15.5322 97.7959 16.124 98.5752 16.8096 99.1377L16.4756 100.131C15.6963 99.6973 14.9521 98.9707 14.2432 97.9512C12.8604 95.959 12.1689 93.5771 12.1689 90.8057ZM17.9873 91.166C17.9873 89.6719 18.3301 88.4912 19.0156 87.624C19.7012 86.751 20.6211 86.3145 21.7754 86.3145C22.9004 86.3145 23.7881 86.6924 24.4385 87.4482L24.5088 86.4902H26.0029V99.6562H24.377V95.1211C23.7207 95.8242 22.8477 96.1758 21.7578 96.1758C20.6094 96.1758 19.6924 95.7305 19.0068 94.8398C18.3271 93.9434 17.9873 92.7568 17.9873 91.2803V91.166ZM19.6133 91.3506C19.6133 92.4404 19.8418 93.2959 20.2988 93.917C20.7617 94.5381 21.3828 94.8486 22.1621 94.8486C23.1289 94.8486 23.8672 94.4209 24.377 93.5654V88.9072C23.8613 88.0693 23.1289 87.6504 22.1797 87.6504C21.3945 87.6504 20.7705 87.9639 20.3076 88.5908C19.8447 89.2119 19.6133 90.1318 19.6133 91.3506ZM33.79 96H32.1553V85.1631L28.877 86.3672V84.8906L33.5352 83.1416H33.79V96ZM38.668 98.5488L37.7451 97.916C38.2959 97.1484 38.583 96.3574 38.6064 95.543V94.0752H40.1973V95.3496C40.1973 95.9414 40.0508 96.5332 39.7578 97.125C39.4707 97.7168 39.1074 98.1914 38.668 98.5488ZM48.125 96C48.0312 95.8125 47.9551 95.4785 47.8965 94.998C47.1406 95.7832 46.2383 96.1758 45.1895 96.1758C44.252 96.1758 43.4814 95.9121 42.8779 95.3848C42.2803 94.8516 41.9814 94.1777 41.9814 93.3633C41.9814 92.373 42.3564 91.6055 43.1064 91.0605C43.8623 90.5098 44.9229 90.2344 46.2881 90.2344H47.8701V89.4873C47.8701 88.9189 47.7002 88.4678 47.3604 88.1338C47.0205 87.7939 46.5195 87.624 45.8574 87.624C45.2773 87.624 44.791 87.7705 44.3984 88.0635C44.0059 88.3564 43.8096 88.7109 43.8096 89.127H42.1748C42.1748 88.6523 42.3418 88.1953 42.6758 87.7559C43.0156 87.3105 43.4727 86.959 44.0469 86.7012C44.627 86.4434 45.2627 86.3145 45.9541 86.3145C47.0498 86.3145 47.9082 86.5898 48.5293 87.1406C49.1504 87.6855 49.4727 88.4385 49.4961 89.3994V93.7764C49.4961 94.6494 49.6074 95.3438 49.8301 95.8594V96H48.125ZM45.4268 94.7607C45.9365 94.7607 46.4199 94.6289 46.877 94.3652C47.334 94.1016 47.665 93.7588 47.8701 93.3369V91.3857H46.5957C44.6035 91.3857 43.6074 91.9688 43.6074 93.1348C43.6074 93.6445 43.7773 94.043 44.1172 94.3301C44.457 94.6172 44.8936 94.7607 45.4268 94.7607ZM55.7979 90.8936C55.7979 92.2002 55.625 93.4541 55.2793 94.6553C54.9395 95.8506 54.415 96.9551 53.7061 97.9688C53.0029 98.9824 52.2646 99.7031 51.4912 100.131L51.1484 99.1377C52.0508 98.4463 52.7744 97.374 53.3193 95.9209C53.8701 94.4619 54.1514 92.8447 54.1631 91.0693V90.7881C54.1631 89.5576 54.0342 88.415 53.7764 87.3604C53.5186 86.2998 53.1582 85.3506 52.6953 84.5127C52.2383 83.6748 51.7227 83.0215 51.1484 82.5527L51.4912 81.5596C52.2646 81.9873 53 82.7021 53.6973 83.7041C54.4004 84.7061 54.9248 85.8105 55.2705 87.0176C55.6221 88.2246 55.7979 89.5166 55.7979 90.8936ZM65.7383 88.8457H58.4082V87.4307H65.7383V88.8457ZM65.7383 92.4932H58.4082V91.0869H65.7383V92.4932ZM68.1201 90.8057C68.1201 89.4814 68.2959 88.21 68.6475 86.9912C69.0049 85.7725 69.5352 84.665 70.2383 83.6689C70.9414 82.6729 71.6709 81.9697 72.4268 81.5596L72.7607 82.6318C71.9053 83.2881 71.2021 84.29 70.6514 85.6377C70.1064 86.9854 69.8076 88.4941 69.7549 90.1641L69.7461 90.9111C69.7461 93.1729 70.1592 95.1357 70.9854 96.7998C71.4834 97.7959 72.0752 98.5752 72.7607 99.1377L72.4268 100.131C71.6475 99.6973 70.9033 98.9707 70.1943 97.9512C68.8115 95.959 68.1201 93.5771 68.1201 90.8057ZM73.9385 91.166C73.9385 89.6719 74.2812 88.4912 74.9668 87.624C75.6523 86.751 76.5723 86.3145 77.7266 86.3145C78.8516 86.3145 79.7393 86.6924 80.3896 87.4482L80.46 86.4902H81.9541V99.6562H80.3281V95.1211C79.6719 95.8242 78.7988 96.1758 77.709 96.1758C76.5605 96.1758 75.6436 95.7305 74.958 94.8398C74.2783 93.9434 73.9385 92.7568 73.9385 91.2803V91.166ZM75.5645 91.3506C75.5645 92.4404 75.793 93.2959 76.25 93.917C76.7129 94.5381 77.334 94.8486 78.1133 94.8486C79.0801 94.8486 79.8184 94.4209 80.3281 93.5654V88.9072C79.8125 88.0693 79.0801 87.6504 78.1309 87.6504C77.3457 87.6504 76.7217 87.9639 76.2588 88.5908C75.7959 89.2119 75.5645 90.1318 75.5645 91.3506ZM89.7412 96H88.1064V85.1631L84.8281 86.3672V84.8906L89.4863 83.1416H89.7412V96ZM94.6191 98.5488L93.6963 97.916C94.2471 97.1484 94.5342 96.3574 94.5576 95.543V94.0752H96.1484V95.3496C96.1484 95.9414 96.002 96.5332 95.709 97.125C95.4219 97.7168 95.0586 98.1914 94.6191 98.5488ZM104.076 96C103.982 95.8125 103.906 95.4785 103.848 94.998C103.092 95.7832 102.189 96.1758 101.141 96.1758C100.203 96.1758 99.4326 95.9121 98.8291 95.3848C98.2314 94.8516 97.9326 94.1777 97.9326 93.3633C97.9326 92.373 98.3076 91.6055 99.0576 91.0605C99.8135 90.5098 100.874 90.2344 102.239 90.2344H103.821V89.4873C103.821 88.9189 103.651 88.4678 103.312 88.1338C102.972 87.7939 102.471 87.624 101.809 87.624C101.229 87.624 100.742 87.7705 100.35 88.0635C99.957 88.3564 99.7607 88.7109 99.7607 89.127H98.126C98.126 88.6523 98.293 88.1953 98.627 87.7559C98.9668 87.3105 99.4238 86.959 99.998 86.7012C100.578 86.4434 101.214 86.3145 101.905 86.3145C103.001 86.3145 103.859 86.5898 104.48 87.1406C105.102 87.6855 105.424 88.4385 105.447 89.3994V93.7764C105.447 94.6494 105.559 95.3438 105.781 95.8594V96H104.076ZM101.378 94.7607C101.888 94.7607 102.371 94.6289 102.828 94.3652C103.285 94.1016 103.616 93.7588 103.821 93.3369V91.3857H102.547C100.555 91.3857 99.5586 91.9688 99.5586 93.1348C99.5586 93.6445 99.7285 94.043 100.068 94.3301C100.408 94.6172 100.845 94.7607 101.378 94.7607ZM107.943 98.5488L107.021 97.916C107.571 97.1484 107.858 96.3574 107.882 95.543V94.0752H109.473V95.3496C109.473 95.9414 109.326 96.5332 109.033 97.125C108.746 97.7168 108.383 98.1914 107.943 98.5488ZM116.478 90.8232H113.472V96H111.775V83.2031H116.012C117.453 83.2031 118.561 83.5312 119.334 84.1875C120.113 84.8438 120.503 85.7988 120.503 87.0527C120.503 87.8496 120.286 88.5439 119.853 89.1357C119.425 89.7275 118.827 90.1699 118.06 90.4629L121.065 95.8945V96H119.255L116.478 90.8232ZM113.472 89.4434H116.064C116.902 89.4434 117.567 89.2266 118.06 88.793C118.558 88.3594 118.807 87.7793 118.807 87.0527C118.807 86.2617 118.569 85.6553 118.095 85.2334C117.626 84.8115 116.946 84.5977 116.056 84.5918H113.472V89.4434ZM126.374 90.8936C126.374 92.2002 126.201 93.4541 125.855 94.6553C125.516 95.8506 124.991 96.9551 124.282 97.9688C123.579 98.9824 122.841 99.7031 122.067 100.131L121.725 99.1377C122.627 98.4463 123.351 97.374 123.896 95.9209C124.446 94.4619 124.728 92.8447 124.739 91.0693V90.7881C124.739 89.5576 124.61 88.415 124.353 87.3604C124.095 86.2998 123.734 85.3506 123.271 84.5127C122.814 83.6748 122.299 83.0215 121.725 82.5527L122.067 81.5596C122.841 81.9873 123.576 82.7021 124.273 83.7041C124.977 84.7061 125.501 85.8105 125.847 87.0176C126.198 88.2246 126.374 89.5166 126.374 90.8936Z" fill="black"/>
</svg>
