<svg width="217" height="150" viewBox="0 0 217 150" fill="none" xmlns="http://www.w3.org/2000/svg">
<path d="M48.1689 61.8057C48.1689 60.4814 48.3447 59.21 48.6963 57.9912C49.0537 56.7725 49.584 55.665 50.2871 54.6689C50.9902 53.6729 51.7197 52.9697 52.4756 52.5596L52.8096 53.6318C51.9541 54.2881 51.251 55.29 50.7002 56.6377C50.1553 57.9854 49.8564 59.4941 49.8037 61.1641L49.7949 61.9111C49.7949 64.1729 50.208 66.1357 51.0342 67.7998C51.5322 68.7959 52.124 69.5752 52.8096 70.1377L52.4756 71.1309C51.6963 70.6973 50.9521 69.9707 50.2432 68.9512C48.8604 66.959 48.1689 64.5771 48.1689 61.8057ZM53.9873 62.166C53.9873 60.6719 54.3301 59.4912 55.0156 58.624C55.7012 57.751 56.6211 57.3145 57.7754 57.3145C58.9004 57.3145 59.7881 57.6924 60.4385 58.4482L60.5088 57.4902H62.0029V70.6562H60.377V66.1211C59.7207 66.8242 58.8477 67.1758 57.7578 67.1758C56.6094 67.1758 55.6924 66.7305 55.0068 65.8398C54.3271 64.9434 53.9873 63.7568 53.9873 62.2803V62.166ZM55.6133 62.3506C55.6133 63.4404 55.8418 64.2959 56.2988 64.917C56.7617 65.5381 57.3828 65.8486 58.1621 65.8486C59.1289 65.8486 59.8672 65.4209 60.377 64.5654V59.9072C59.8613 59.0693 59.1289 58.6504 58.1797 58.6504C57.3945 58.6504 56.7705 58.9639 56.3076 59.5908C55.8447 60.2119 55.6133 61.1318 55.6133 62.3506ZM69.79 67H68.1553V56.1631L64.877 57.3672V55.8906L69.5352 54.1416H69.79V67ZM74.668 69.5488L73.7451 68.916C74.2959 68.1484 74.583 67.3574 74.6064 66.543V65.0752H76.1973V66.3496C76.1973 66.9414 76.0508 67.5332 75.7578 68.125C75.4707 68.7168 75.1074 69.1914 74.668 69.5488ZM79.3174 53.6582C79.8916 53.6582 80.3545 53.7754 80.7061 54.0098C81.0576 54.2441 81.3301 54.6396 81.5234 55.1963L85.2764 64.9434C85.3936 65.2422 85.5166 65.4502 85.6455 65.5674C85.7803 65.6787 85.9502 65.7344 86.1553 65.7344L86.4893 65.708L86.542 67.0439C86.3311 67.1143 86.1025 67.1494 85.8564 67.1494C85.4053 67.1494 85.0654 67.0967 84.8369 66.9912C84.6084 66.8799 84.4033 66.6982 84.2217 66.4463C84.04 66.1943 83.8643 65.834 83.6943 65.3652L81.6729 60.1533L79.1592 67H77.3486L80.8115 57.9561L79.9678 55.8906C79.833 55.5625 79.6865 55.3311 79.5283 55.1963C79.376 55.0615 79.168 54.9941 78.9043 54.9941L78.4912 55.0117L78.4824 53.7637C78.7285 53.6934 79.0068 53.6582 79.3174 53.6582ZM91.9736 61.8936C91.9736 63.2002 91.8008 64.4541 91.4551 65.6553C91.1152 66.8506 90.5908 67.9551 89.8818 68.9688C89.1787 69.9824 88.4404 70.7031 87.667 71.1309L87.3242 70.1377C88.2266 69.4463 88.9502 68.374 89.4951 66.9209C90.0459 65.4619 90.3271 63.8447 90.3389 62.0693V61.7881C90.3389 60.5576 90.21 59.415 89.9521 58.3604C89.6943 57.2998 89.334 56.3506 88.8711 55.5127C88.4141 54.6748 87.8984 54.0215 87.3242 53.5527L87.667 52.5596C88.4404 52.9873 89.1758 53.7021 89.873 54.7041C90.5762 55.7061 91.1006 56.8105 91.4463 58.0176C91.7979 59.2246 91.9736 60.5166 91.9736 61.8936ZM101.914 59.8457H94.584V58.4307H101.914V59.8457ZM101.914 63.4932H94.584V62.0869H101.914V63.4932ZM108.761 61.8057C108.761 60.4814 108.937 59.21 109.288 57.9912C109.646 56.7725 110.176 55.665 110.879 54.6689C111.582 53.6729 112.312 52.9697 113.067 52.5596L113.401 53.6318C112.546 54.2881 111.843 55.29 111.292 56.6377C110.747 57.9854 110.448 59.4941 110.396 61.1641L110.387 61.9111C110.387 64.1729 110.8 66.1357 111.626 67.7998C112.124 68.7959 112.716 69.5752 113.401 70.1377L113.067 71.1309C112.288 70.6973 111.544 69.9707 110.835 68.9512C109.452 66.959 108.761 64.5771 108.761 61.8057ZM114.579 62.166C114.579 60.6719 114.922 59.4912 115.607 58.624C116.293 57.751 117.213 57.3145 118.367 57.3145C119.492 57.3145 120.38 57.6924 121.03 58.4482L121.101 57.4902H122.595V70.6562H120.969V66.1211C120.312 66.8242 119.439 67.1758 118.35 67.1758C117.201 67.1758 116.284 66.7305 115.599 65.8398C114.919 64.9434 114.579 63.7568 114.579 62.2803V62.166ZM116.205 62.3506C116.205 63.4404 116.434 64.2959 116.891 64.917C117.354 65.5381 117.975 65.8486 118.754 65.8486C119.721 65.8486 120.459 65.4209 120.969 64.5654V59.9072C120.453 59.0693 119.721 58.6504 118.771 58.6504C117.986 58.6504 117.362 58.9639 116.899 59.5908C116.437 60.2119 116.205 61.1318 116.205 62.3506ZM133.423 67H125.038V65.8311L129.468 60.9092C130.124 60.165 130.575 59.5615 130.821 59.0986C131.073 58.6299 131.199 58.1465 131.199 57.6484C131.199 56.9805 130.997 56.4326 130.593 56.0049C130.188 55.5771 129.649 55.3633 128.976 55.3633C128.167 55.3633 127.537 55.5947 127.086 56.0576C126.641 56.5146 126.418 57.1533 126.418 57.9736H124.792C124.792 56.7959 125.17 55.8438 125.926 55.1172C126.688 54.3906 127.704 54.0273 128.976 54.0273C130.165 54.0273 131.105 54.3408 131.797 54.9678C132.488 55.5889 132.834 56.418 132.834 57.4551C132.834 58.7148 132.031 60.2148 130.426 61.9551L126.998 65.6729H133.423V67ZM135.26 69.5488L134.337 68.916C134.888 68.1484 135.175 67.3574 135.198 66.543V65.0752H136.789V66.3496C136.789 66.9414 136.643 67.5332 136.35 68.125C136.062 68.7168 135.699 69.1914 135.26 69.5488ZM139.909 53.6582C140.483 53.6582 140.946 53.7754 141.298 54.0098C141.649 54.2441 141.922 54.6396 142.115 55.1963L145.868 64.9434C145.985 65.2422 146.108 65.4502 146.237 65.5674C146.372 65.6787 146.542 65.7344 146.747 65.7344L147.081 65.708L147.134 67.0439C146.923 67.1143 146.694 67.1494 146.448 67.1494C145.997 67.1494 145.657 67.0967 145.429 66.9912C145.2 66.8799 144.995 66.6982 144.813 66.4463C144.632 66.1943 144.456 65.834 144.286 65.3652L142.265 60.1533L139.751 67H137.94L141.403 57.9561L140.56 55.8906C140.425 55.5625 140.278 55.3311 140.12 55.1963C139.968 55.0615 139.76 54.9941 139.496 54.9941L139.083 55.0117L139.074 53.7637C139.32 53.6934 139.599 53.6582 139.909 53.6582ZM148.76 69.5488L147.837 68.916C148.388 68.1484 148.675 67.3574 148.698 66.543V65.0752H150.289V66.3496C150.289 66.9414 150.143 67.5332 149.85 68.125C149.562 68.7168 149.199 69.1914 148.76 69.5488ZM154.297 65.6201H160.361V67H152.601V54.2031H154.297V65.6201ZM165.784 61.8936C165.784 63.2002 165.611 64.4541 165.266 65.6553C164.926 66.8506 164.401 67.9551 163.692 68.9688C162.989 69.9824 162.251 70.7031 161.478 71.1309L161.135 70.1377C162.037 69.4463 162.761 68.374 163.306 66.9209C163.856 65.4619 164.138 63.8447 164.149 62.0693V61.7881C164.149 60.5576 164.021 59.415 163.763 58.3604C163.505 57.2998 163.145 56.3506 162.682 55.5127C162.225 54.6748 161.709 54.0215 161.135 53.5527L161.478 52.5596C162.251 52.9873 162.986 53.7021 163.684 54.7041C164.387 55.7061 164.911 56.8105 165.257 58.0176C165.608 59.2246 165.784 60.5166 165.784 61.8936Z" fill="black"/>
<path d="M191.061 76.0607C191.646 75.4749 191.646 74.5251 191.061 73.9393L181.515 64.3934C180.929 63.8076 179.979 63.8076 179.393 64.3934C178.808 64.9792 178.808 65.9289 179.393 66.5147L187.879 75L179.393 83.4853C178.808 84.0711 178.808 85.0208 179.393 85.6066C179.979 86.1924 180.929 86.1924 181.515 85.6066L191.061 76.0607ZM33 76.5H190V73.5H33V76.5Z" fill="black"/>
</svg>
