<svg width="159" height="149" viewBox="0 0 159 149" fill="none" xmlns="http://www.w3.org/2000/svg">
<g clip-path="url(#clip0_109_2)">
<path d="M77.8741 41.3495C73.1823 41.7698 68.769 43.512 65.105 46.3904C61.8604 48.8786 59.3092 52.1977 57.6772 56.0538C56.4114 59.0467 55.8106 62.3319 55.917 65.6793C55.979 67.8396 56.3881 69.9967 57.1275 72.0618C57.6674 73.4952 58.1321 74.2082 58.2368 74.1698C58.5364 74.0257 57.1675 70.9378 57.4073 65.6706C57.5485 62.5871 58.2907 59.6038 59.5895 56.8987C61.2412 53.5155 63.6705 50.6382 66.6776 48.5036C69.9871 46.0655 73.9296 44.6452 78.0863 44.3936C82.1206 44.0691 86.2283 45.1717 89.7472 47.5237C91.295 48.5993 92.6405 49.9696 93.7059 51.5552C94.7712 53.1409 95.5352 54.9104 95.9536 56.7614C96.525 60.1487 96.0254 63.5678 94.5306 66.5009C93.343 69.0018 91.8081 71.2931 89.9718 73.3064C88.6119 74.8064 87.1428 76.1957 85.5761 77.4635C83.8166 78.8474 81.9828 80.1308 80.0823 81.3085L79.928 81.3828C80.0226 80.6648 80.2878 79.5644 80.3852 78.761C80.5956 77.4588 80.7398 76.2726 80.8283 75.2694C80.9689 73.2803 80.8815 71.9894 80.452 71.8479C80.0224 71.7064 79.4059 72.8917 78.7081 74.7767C78.3571 75.7262 77.9963 76.8606 77.6337 78.1279C77.4548 78.7663 77.3052 79.4868 77.1034 80.1243C76.9865 80.5522 76.907 80.9924 76.8657 81.4396C76.8234 82.0362 76.9231 82.6436 77.1561 83.2093C77.6314 84.2186 78.4587 85.0189 79.4604 85.4387C80.1872 85.7574 80.9394 85.999 81.7047 86.1598C82.9267 86.4769 84.1698 86.6596 85.4127 86.7048C87.5504 86.7327 88.8244 86.2637 88.8301 85.8887C88.8358 85.5136 87.5898 85.1526 85.7254 84.6089C84.7931 84.3371 83.6992 84.011 82.5067 83.5762L81.9427 83.3673C83.9753 82.5443 85.8917 81.4688 87.6521 80.163C89.4655 78.8585 91.147 77.3738 92.6747 75.7282C94.8041 73.4722 96.574 70.8757 97.925 68.0255C98.7441 66.2773 99.3329 64.4114 99.6766 62.475C100.009 60.3658 99.9422 58.1842 99.4787 56.0495C98.9394 53.7718 97.9698 51.6012 96.6275 49.6665C95.2852 47.7318 93.5975 46.0726 91.6649 44.7874C87.4543 42.0799 82.5699 40.8787 77.8105 41.3801" fill="black"/>
<path d="M53.3486 7.97257C53.9703 6.80335 54.7224 5.76322 55.605 4.85218C56.4928 3.94389 57.4809 3.21504 58.5693 2.66564C59.6578 2.11624 60.632 1.83789 61.4919 1.8306L61.2834 2.93415C60.22 3.11197 59.1288 3.66654 58.0098 4.59787C56.896 5.53196 55.9238 6.72385 55.0932 8.17355L54.7347 8.82904C53.6729 10.826 53.1161 12.7531 53.0644 14.6102C53.0365 15.7235 53.1932 16.6895 53.5344 17.508L52.7732 18.2281C52.2887 17.4794 51.9728 16.4885 51.8254 15.2555C51.5397 12.8473 52.0475 10.4196 53.3486 7.97257ZM58.3167 11.0223C59.0182 9.70305 59.8751 8.82151 60.8876 8.37767C61.9027 7.92866 62.9199 7.97511 63.9391 8.51702C64.9324 9.04517 65.5388 9.79561 65.7582 10.7683L66.27 9.95548L67.5893 10.6569L61.4082 22.2818L59.9725 21.5185L62.1017 17.5142C61.1921 17.8269 60.2562 17.7275 59.294 17.2158C58.28 16.6766 57.6794 15.853 57.4922 14.7447C57.3129 13.6341 57.5699 12.4269 58.2631 11.1232L58.3167 11.0223ZM59.6657 11.9486C59.1541 12.9109 58.9542 13.7735 59.0662 14.5365C59.1833 15.3022 59.5859 15.8679 60.274 16.2338C61.1276 16.6877 61.9803 16.6566 62.832 16.1406L65.0189 12.0277C64.957 11.0458 64.507 10.332 63.6689 9.88639C62.9756 9.51778 62.2775 9.5016 61.5744 9.83785C60.8741 10.1689 60.2379 10.8725 59.6657 11.9486ZM70.0003 22.7094L68.5569 21.9419L73.6445 12.3735L70.1846 11.8976L70.8779 10.5938L75.8119 11.2364L76.037 11.3561L70.0003 22.7094ZM73.1107 27.2499L72.5929 26.2579C73.4396 25.8388 74.0645 25.2751 74.4675 24.567L75.1566 23.2711L76.5612 24.0179L75.9629 25.1431C75.6851 25.6657 75.2779 26.1194 74.7414 26.5044C74.2101 26.8921 73.6665 27.1406 73.1107 27.2499ZM77.6985 26.8026L83.7063 15.5036L87.4002 17.4677C88.6263 18.1196 89.4124 18.8628 89.7585 19.6971C90.1097 20.5342 90.0213 21.4495 89.4931 22.4428C89.2125 22.9705 88.8135 23.3589 88.2962 23.6081C87.7815 23.852 87.2064 23.9477 86.5708 23.8951C87.0905 24.3904 87.3983 24.9722 87.4943 25.6404C87.5982 26.3062 87.4741 26.9701 87.122 27.6324C86.5828 28.6464 85.8307 29.2684 84.8655 29.4985C83.9004 29.7286 82.8177 29.5245 81.6175 28.8863L77.6985 26.8026ZM81.9984 22.3101L79.8363 26.3765L82.2963 27.6845C82.9896 28.0531 83.6303 28.1648 84.2184 28.0196C84.8145 27.8721 85.2804 27.4827 85.616 26.8515C86.3394 25.4909 85.9614 24.4172 84.4817 23.6305L81.9984 22.3101ZM82.6339 21.115L84.8844 22.3116C85.5362 22.6582 86.1428 22.7717 86.7041 22.6521C87.2706 22.5352 87.7024 22.1974 87.9995 21.6386C88.3296 21.0178 88.3878 20.4715 88.1742 19.9995C87.9634 19.5224 87.488 19.0872 86.7482 18.6938L84.5443 17.522L82.6339 21.115ZM93.0866 29.2012C92.4731 30.3548 91.7318 31.3808 90.8627 32.2791C90.0014 33.175 89.0199 33.904 87.918 34.4661C86.8213 35.0311 85.8311 35.3208 84.9474 35.3354L85.111 34.2975C86.2323 34.1107 87.3746 33.5036 88.538 32.4764C89.7092 31.4468 90.7168 30.151 91.5606 28.5889L91.6927 28.3406C92.2703 27.2541 92.6929 26.1848 92.9604 25.1325C93.2307 24.075 93.3582 23.0678 93.3428 22.1106C93.3326 21.1563 93.1841 20.3373 92.8971 19.6539L93.6661 18.9379C94.1482 19.6787 94.4618 20.6551 94.6071 21.8671C94.7575 23.0818 94.702 24.3033 94.4406 25.5313C94.1843 26.7621 93.733 27.9854 93.0866 29.2012ZM102.825 32.0598L96.3528 28.6185L97.0171 27.3691L103.489 30.8104L102.825 32.0598ZM101.112 35.2803L94.6404 31.839L95.3006 30.5974L101.773 34.0386L101.112 35.2803ZM104.008 34.9085C104.629 33.7393 105.382 32.6992 106.264 31.7881C107.152 30.8798 108.14 30.151 109.228 29.6016C110.317 29.0522 111.291 28.7738 112.151 28.7665L111.943 29.8701C110.879 30.0479 109.788 30.6025 108.669 31.5338C107.555 32.4679 106.583 33.6598 105.752 35.1095L105.394 35.765C104.332 37.762 103.775 39.689 103.724 41.5462C103.696 42.6595 103.852 43.6254 104.194 44.4439L103.432 45.164C102.948 44.4153 102.632 43.4244 102.485 42.1914C102.199 39.7832 102.707 37.3556 104.008 34.9085ZM108.976 37.9582C109.677 36.639 110.534 35.7574 111.547 35.3136C112.562 34.8646 113.579 34.911 114.598 35.453C115.592 35.9811 116.198 36.7315 116.417 37.7043L116.929 36.8914L118.248 37.5929L112.067 49.2178L110.632 48.4544L112.761 44.4501C111.851 44.7628 110.915 44.6634 109.953 44.1517C108.939 43.6126 108.338 42.7889 108.151 41.6807C107.972 40.57 108.229 39.3628 108.922 38.0591L108.976 37.9582ZM110.325 38.8845C109.813 39.8468 109.613 40.7094 109.725 41.4724C109.842 42.2381 110.245 42.8039 110.933 43.1697C111.787 43.6236 112.639 43.5926 113.491 43.0765L115.678 38.9636C115.616 37.9817 115.166 37.268 114.328 36.8223C113.635 36.4537 112.937 36.4375 112.234 36.7738C111.533 37.1049 110.897 37.8085 110.325 38.8845ZM120.659 49.6453L119.216 48.8778L124.304 39.3094L120.844 38.8335L121.537 37.5298L126.471 38.1724L126.696 38.292L120.659 49.6453ZM123.77 54.1859L123.252 53.1939C124.099 52.7747 124.724 52.2111 125.127 51.503L125.816 50.207L127.22 50.9538L126.622 52.0791C126.344 52.6016 125.937 53.0554 125.401 53.4403C124.869 53.8281 124.326 54.0766 123.77 54.1859ZM128.358 53.7385L134.365 42.4396L138.059 44.4036C139.285 45.0556 140.072 45.7987 140.418 46.6331C140.769 47.4702 140.68 48.3854 140.152 49.3787C139.872 49.9064 139.473 50.2948 138.955 50.544C138.441 50.788 137.866 50.8837 137.23 50.831C137.75 51.3264 138.057 51.9081 138.153 52.5763C138.257 53.2421 138.133 53.9061 137.781 54.5683C137.242 55.5823 136.49 56.2043 135.525 56.4344C134.56 56.6645 133.477 56.4605 132.277 55.8223L128.358 53.7385ZM132.658 49.246L130.495 53.3124L132.955 54.6204C133.649 54.989 134.289 55.1007 134.878 54.9556C135.474 54.808 135.94 54.4186 136.275 53.7874C136.999 52.4268 136.62 51.3531 135.141 50.5664L132.658 49.246ZM133.293 48.0509L135.543 49.2475C136.195 49.5941 136.802 49.7076 137.363 49.588C137.93 49.4711 138.362 49.1333 138.659 48.5746C138.989 47.9538 139.047 47.4074 138.833 46.9355C138.623 46.4584 138.147 46.0231 137.407 45.6298L135.203 44.4579L133.293 48.0509ZM136.792 61.1096L136.274 60.1176C137.12 59.6985 137.745 59.1349 138.148 58.4267L138.837 57.1308L140.242 57.8776L139.644 59.0029C139.366 59.5254 138.959 59.9791 138.422 60.3641C137.891 60.7519 137.347 61.0004 136.792 61.1096ZM147.954 58.2949L145.3 56.8837L142.869 61.4545L141.372 60.6582L147.379 49.3592L151.12 51.3481C152.393 52.0248 153.216 52.8344 153.591 53.7769C153.971 54.7222 153.867 55.7484 153.278 56.8556C152.904 57.5592 152.387 58.0704 151.726 58.3894C151.07 58.7111 150.335 58.8211 149.52 58.7195L149.624 64.9265L149.574 65.0196L147.976 64.1696L147.954 58.2949ZM145.948 55.6654L148.237 56.8826C148.977 57.276 149.666 57.3968 150.304 57.245C150.947 57.096 151.439 56.7007 151.78 56.0592C152.152 55.3608 152.227 54.7139 152.006 54.1186C151.79 53.526 151.29 53.0181 150.507 52.5948L148.225 51.3817L145.948 55.6654ZM156.659 63.0031C156.045 64.1568 155.304 65.1828 154.435 66.0811C153.574 66.9769 152.592 67.7059 151.49 68.2681C150.394 68.833 149.403 69.1228 148.52 69.1373L148.683 68.0995C149.805 67.9126 150.947 67.3056 152.11 66.2784C153.281 65.2488 154.289 63.9529 155.133 62.3908L155.265 62.1425C155.843 61.0561 156.265 59.9867 156.533 58.9344C156.803 57.877 156.93 56.8697 156.915 55.9126C156.905 54.9582 156.756 54.1393 156.469 53.4558L157.238 52.7398C157.72 53.4806 158.034 54.457 158.179 55.669C158.33 56.8838 158.274 58.1052 158.013 59.3333C157.757 60.564 157.305 61.7873 156.659 63.0031Z" fill="black"/>
</g>
<defs>
<clipPath id="clip0_109_2">
<rect width="159" height="149" fill="white"/>
</clipPath>
</defs>
</svg>
