<svg width="217" height="150" viewBox="0 0 217 150" fill="none" xmlns="http://www.w3.org/2000/svg">
<path d="M48.1689 61.8057C48.1689 60.4814 48.3447 59.21 48.6963 57.9912C49.0537 56.7725 49.584 55.665 50.2871 54.6689C50.9902 53.6729 51.7197 52.9697 52.4756 52.5596L52.8096 53.6318C51.9541 54.2881 51.251 55.29 50.7002 56.6377C50.1553 57.9854 49.8564 59.4941 49.8037 61.1641L49.7949 61.9111C49.7949 64.1729 50.208 66.1357 51.0342 67.7998C51.5322 68.7959 52.124 69.5752 52.8096 70.1377L52.4756 71.1309C51.6963 70.6973 50.9521 69.9707 50.2432 68.9512C48.8604 66.959 48.1689 64.5771 48.1689 61.8057ZM53.9873 62.166C53.9873 60.6719 54.3301 59.4912 55.0156 58.624C55.7012 57.751 56.6211 57.3145 57.7754 57.3145C58.9004 57.3145 59.7881 57.6924 60.4385 58.4482L60.5088 57.4902H62.0029V70.6562H60.377V66.1211C59.7207 66.8242 58.8477 67.1758 57.7578 67.1758C56.6094 67.1758 55.6924 66.7305 55.0068 65.8398C54.3271 64.9434 53.9873 63.7568 53.9873 62.2803V62.166ZM55.6133 62.3506C55.6133 63.4404 55.8418 64.2959 56.2988 64.917C56.7617 65.5381 57.3828 65.8486 58.1621 65.8486C59.1289 65.8486 59.8672 65.4209 60.377 64.5654V59.9072C59.8613 59.0693 59.1289 58.6504 58.1797 58.6504C57.3945 58.6504 56.7705 58.9639 56.3076 59.5908C55.8447 60.2119 55.6133 61.1318 55.6133 62.3506ZM72.8311 67H64.4463V65.8311L68.876 60.9092C69.5322 60.165 69.9834 59.5615 70.2295 59.0986C70.4814 58.6299 70.6074 58.1465 70.6074 57.6484C70.6074 56.9805 70.4053 56.4326 70.001 56.0049C69.5967 55.5771 69.0576 55.3633 68.3838 55.3633C67.5752 55.3633 66.9453 55.5947 66.4941 56.0576C66.0488 56.5146 65.8262 57.1533 65.8262 57.9736H64.2002C64.2002 56.7959 64.5781 55.8438 65.334 55.1172C66.0957 54.3906 67.1123 54.0273 68.3838 54.0273C69.5732 54.0273 70.5137 54.3408 71.2051 54.9678C71.8965 55.5889 72.2422 56.418 72.2422 57.4551C72.2422 58.7148 71.4395 60.2148 69.834 61.9551L66.4062 65.6729H72.8311V67ZM74.668 69.5488L73.7451 68.916C74.2959 68.1484 74.583 67.3574 74.6064 66.543V65.0752H76.1973V66.3496C76.1973 66.9414 76.0508 67.5332 75.7578 68.125C75.4707 68.7168 75.1074 69.1914 74.668 69.5488ZM78.5088 67V54.2031H82.6924C84.0811 54.2031 85.124 54.4902 85.8213 55.0645C86.5244 55.6387 86.876 56.4883 86.876 57.6133C86.876 58.2109 86.7061 58.7412 86.3662 59.2041C86.0264 59.6611 85.5635 60.0156 84.9775 60.2676C85.6689 60.4609 86.2139 60.8301 86.6123 61.375C87.0166 61.9141 87.2188 62.5586 87.2188 63.3086C87.2188 64.457 86.8467 65.3594 86.1025 66.0156C85.3584 66.6719 84.3066 67 82.9473 67H78.5088ZM80.1963 61.0146V65.6201H82.9824C83.7676 65.6201 84.3857 65.418 84.8369 65.0137C85.2939 64.6035 85.5225 64.041 85.5225 63.3262C85.5225 61.7852 84.6846 61.0146 83.0088 61.0146H80.1963ZM80.1963 59.6611H82.7451C83.4834 59.6611 84.0723 59.4766 84.5117 59.1074C84.957 58.7383 85.1797 58.2373 85.1797 57.6045C85.1797 56.9014 84.9746 56.3916 84.5645 56.0752C84.1543 55.7529 83.5303 55.5918 82.6924 55.5918H80.1963V59.6611ZM93.2217 61.8936C93.2217 63.2002 93.0488 64.4541 92.7031 65.6553C92.3633 66.8506 91.8389 67.9551 91.1299 68.9688C90.4268 69.9824 89.6885 70.7031 88.915 71.1309L88.5723 70.1377C89.4746 69.4463 90.1982 68.374 90.7432 66.9209C91.2939 65.4619 91.5752 63.8447 91.5869 62.0693V61.7881C91.5869 60.5576 91.458 59.415 91.2002 58.3604C90.9424 57.2998 90.582 56.3506 90.1191 55.5127C89.6621 54.6748 89.1465 54.0215 88.5723 53.5527L88.915 52.5596C89.6885 52.9873 90.4238 53.7021 91.1211 54.7041C91.8242 55.7061 92.3486 56.8105 92.6943 58.0176C93.0459 59.2246 93.2217 60.5166 93.2217 61.8936ZM103.162 59.8457H95.832V58.4307H103.162V59.8457ZM103.162 63.4932H95.832V62.0869H103.162V63.4932ZM110.009 61.8057C110.009 60.4814 110.185 59.21 110.536 57.9912C110.894 56.7725 111.424 55.665 112.127 54.6689C112.83 53.6729 113.56 52.9697 114.315 52.5596L114.649 53.6318C113.794 54.2881 113.091 55.29 112.54 56.6377C111.995 57.9854 111.696 59.4941 111.644 61.1641L111.635 61.9111C111.635 64.1729 112.048 66.1357 112.874 67.7998C113.372 68.7959 113.964 69.5752 114.649 70.1377L114.315 71.1309C113.536 70.6973 112.792 69.9707 112.083 68.9512C110.7 66.959 110.009 64.5771 110.009 61.8057ZM115.827 62.166C115.827 60.6719 116.17 59.4912 116.855 58.624C117.541 57.751 118.461 57.3145 119.615 57.3145C120.74 57.3145 121.628 57.6924 122.278 58.4482L122.349 57.4902H123.843V70.6562H122.217V66.1211C121.561 66.8242 120.688 67.1758 119.598 67.1758C118.449 67.1758 117.532 66.7305 116.847 65.8398C116.167 64.9434 115.827 63.7568 115.827 62.2803V62.166ZM117.453 62.3506C117.453 63.4404 117.682 64.2959 118.139 64.917C118.602 65.5381 119.223 65.8486 120.002 65.8486C120.969 65.8486 121.707 65.4209 122.217 64.5654V59.9072C121.701 59.0693 120.969 58.6504 120.02 58.6504C119.234 58.6504 118.61 58.9639 118.147 59.5908C117.685 60.2119 117.453 61.1318 117.453 62.3506ZM128.65 59.8105H129.872C130.64 59.7988 131.243 59.5967 131.683 59.2041C132.122 58.8115 132.342 58.2812 132.342 57.6133C132.342 56.1133 131.595 55.3633 130.101 55.3633C129.397 55.3633 128.835 55.5654 128.413 55.9697C127.997 56.3682 127.789 56.8984 127.789 57.5605H126.163C126.163 56.5469 126.532 55.7061 127.271 55.0381C128.015 54.3643 128.958 54.0273 130.101 54.0273C131.308 54.0273 132.254 54.3467 132.939 54.9854C133.625 55.624 133.968 56.5117 133.968 57.6484C133.968 58.2051 133.786 58.7441 133.423 59.2656C133.065 59.7871 132.576 60.1768 131.955 60.4346C132.658 60.6572 133.2 61.0264 133.581 61.542C133.968 62.0576 134.161 62.6875 134.161 63.4316C134.161 64.5801 133.786 65.4912 133.036 66.165C132.286 66.8389 131.311 67.1758 130.109 67.1758C128.908 67.1758 127.93 66.8506 127.174 66.2002C126.424 65.5498 126.049 64.6914 126.049 63.625H127.684C127.684 64.2988 127.903 64.8379 128.343 65.2422C128.782 65.6465 129.371 65.8486 130.109 65.8486C130.895 65.8486 131.495 65.6436 131.911 65.2334C132.327 64.8232 132.535 64.2344 132.535 63.4668C132.535 62.7227 132.307 62.1514 131.85 61.7529C131.393 61.3545 130.733 61.1494 129.872 61.1377H128.65V59.8105ZM136.508 69.5488L135.585 68.916C136.136 68.1484 136.423 67.3574 136.446 66.543V65.0752H138.037V66.3496C138.037 66.9414 137.891 67.5332 137.598 68.125C137.311 68.7168 136.947 69.1914 136.508 69.5488ZM140.349 67V54.2031H144.532C145.921 54.2031 146.964 54.4902 147.661 55.0645C148.364 55.6387 148.716 56.4883 148.716 57.6133C148.716 58.2109 148.546 58.7412 148.206 59.2041C147.866 59.6611 147.403 60.0156 146.817 60.2676C147.509 60.4609 148.054 60.8301 148.452 61.375C148.856 61.9141 149.059 62.5586 149.059 63.3086C149.059 64.457 148.687 65.3594 147.942 66.0156C147.198 66.6719 146.146 67 144.787 67H140.349ZM142.036 61.0146V65.6201H144.822C145.607 65.6201 146.226 65.418 146.677 65.0137C147.134 64.6035 147.362 64.041 147.362 63.3262C147.362 61.7852 146.524 61.0146 144.849 61.0146H142.036ZM142.036 59.6611H144.585C145.323 59.6611 145.912 59.4766 146.352 59.1074C146.797 58.7383 147.02 58.2373 147.02 57.6045C147.02 56.9014 146.814 56.3916 146.404 56.0752C145.994 55.7529 145.37 55.5918 144.532 55.5918H142.036V59.6611ZM151.256 69.5488L150.333 68.916C150.884 68.1484 151.171 67.3574 151.194 66.543V65.0752H152.785V66.3496C152.785 66.9414 152.639 67.5332 152.346 68.125C152.059 68.7168 151.695 69.1914 151.256 69.5488ZM159.79 61.8232H156.784V67H155.088V54.2031H159.324C160.766 54.2031 161.873 54.5312 162.646 55.1875C163.426 55.8438 163.815 56.7988 163.815 58.0527C163.815 58.8496 163.599 59.5439 163.165 60.1357C162.737 60.7275 162.14 61.1699 161.372 61.4629L164.378 66.8945V67H162.567L159.79 61.8232ZM156.784 60.4434H159.377C160.215 60.4434 160.88 60.2266 161.372 59.793C161.87 59.3594 162.119 58.7793 162.119 58.0527C162.119 57.2617 161.882 56.6553 161.407 56.2334C160.938 55.8115 160.259 55.5977 159.368 55.5918H156.784V60.4434ZM169.687 61.8936C169.687 63.2002 169.514 64.4541 169.168 65.6553C168.828 66.8506 168.304 67.9551 167.595 68.9688C166.892 69.9824 166.153 70.7031 165.38 71.1309L165.037 70.1377C165.939 69.4463 166.663 68.374 167.208 66.9209C167.759 65.4619 168.04 63.8447 168.052 62.0693V61.7881C168.052 60.5576 167.923 59.415 167.665 58.3604C167.407 57.2998 167.047 56.3506 166.584 55.5127C166.127 54.6748 165.611 54.0215 165.037 53.5527L165.38 52.5596C166.153 52.9873 166.889 53.7021 167.586 54.7041C168.289 55.7061 168.813 56.8105 169.159 58.0176C169.511 59.2246 169.687 60.5166 169.687 61.8936Z" fill="black"/>
<path d="M191.061 76.0607C191.646 75.4749 191.646 74.5251 191.061 73.9393L181.515 64.3934C180.929 63.8076 179.979 63.8076 179.393 64.3934C178.808 64.9792 178.808 65.9289 179.393 66.5147L187.879 75L179.393 83.4853C178.808 84.0711 178.808 85.0208 179.393 85.6066C179.979 86.1924 180.929 86.1924 181.515 85.6066L191.061 76.0607ZM33 76.5H190V73.5H33V76.5Z" fill="black"/>
</svg>
