<svg width="139" height="132" viewBox="0 0 139 132" fill="none" xmlns="http://www.w3.org/2000/svg">
<path d="M49.2288 50.7727C48.0719 54.7253 48.094 58.8807 49.2926 62.7955C50.3039 66.2425 52.2223 69.3953 54.8779 71.9747C56.9393 73.9761 59.4546 75.5314 62.2479 76.5317C64.0484 77.1827 65.9575 77.5503 67.8966 77.6195C69.251 77.6457 69.9876 77.4992 69.9896 77.4016C69.9667 77.1111 66.9829 77.2219 62.7182 75.3167C60.2219 74.2007 58.0006 72.6283 56.187 70.6937C53.9275 68.2517 52.3343 65.3415 51.5383 62.2025C50.589 58.719 50.6815 55.0511 51.8059 51.5884C52.831 48.2016 55.056 45.2185 58.1221 43.1199C59.5046 42.2102 61.0651 41.5607 62.7135 41.209C64.3618 40.8573 66.0652 40.8104 67.7249 41.0711C70.7 41.7062 73.3582 43.2226 75.2969 45.3908C76.9778 47.1688 78.3746 49.1612 79.4458 51.3085C80.2464 52.9017 80.9209 54.5477 81.4639 56.2336C82.0409 58.1142 82.5112 60.0224 82.873 61.9506L82.8848 62.1003C82.3233 61.7902 81.5013 61.2172 80.8702 60.8771C79.8643 60.2832 78.9328 59.7808 78.1342 59.383C76.5397 58.6228 75.4477 58.2748 75.1934 58.5782C74.9391 58.8817 75.7186 59.768 77.0488 60.9476C77.719 61.5414 78.5384 62.2032 79.4668 62.9096C79.9358 63.2624 80.4817 63.618 80.9425 63.9891C81.2577 64.2231 81.595 64.4307 81.9505 64.6095C82.4287 64.8376 82.9613 64.9538 83.5022 64.9479C84.4864 64.889 85.4112 64.4759 86.0781 63.7975C86.5736 63.3098 87.0138 62.7765 87.3915 62.2062C88.0444 61.3151 88.5933 60.3634 89.0288 59.367C89.7368 57.6373 89.7583 56.4488 89.451 56.3224C89.1438 56.196 88.447 57.0923 87.4015 58.4323C86.8787 59.1023 86.2594 59.8861 85.5189 60.715L85.166 61.1059C85.139 59.1854 84.8665 57.2774 84.3542 55.4216C83.8599 53.523 83.1749 51.6733 82.308 49.8964C81.1307 47.4318 79.5576 45.1492 77.6411 43.1249C76.4625 41.891 75.1133 40.8063 73.6273 39.898C71.9953 38.9425 70.1756 38.2888 68.2676 37.9727C66.2174 37.6718 64.1175 37.7557 62.0928 38.2193C60.068 38.683 58.1596 39.5169 56.4811 40.6717C52.9004 43.2174 50.3452 46.8003 49.2336 50.8342" fill="black"/>
<path d="M12.1689 26.8057C12.1689 25.4814 12.3447 24.21 12.6963 22.9912C13.0537 21.7725 13.584 20.665 14.2871 19.6689C14.9902 18.6729 15.7197 17.9697 16.4756 17.5596L16.8096 18.6318C15.9541 19.2881 15.251 20.29 14.7002 21.6377C14.1553 22.9854 13.8564 24.4941 13.8037 26.1641L13.7949 26.9111C13.7949 29.1729 14.208 31.1357 15.0342 32.7998C15.5322 33.7959 16.124 34.5752 16.8096 35.1377L16.4756 36.1309C15.6963 35.6973 14.9521 34.9707 14.2432 33.9512C12.8604 31.959 12.1689 29.5771 12.1689 26.8057ZM17.9873 27.166C17.9873 25.6719 18.3301 24.4912 19.0156 23.624C19.7012 22.751 20.6211 22.3145 21.7754 22.3145C22.9004 22.3145 23.7881 22.6924 24.4385 23.4482L24.5088 22.4902H26.0029V35.6562H24.377V31.1211C23.7207 31.8242 22.8477 32.1758 21.7578 32.1758C20.6094 32.1758 19.6924 31.7305 19.0068 30.8398C18.3271 29.9434 17.9873 28.7568 17.9873 27.2803V27.166ZM19.6133 27.3506C19.6133 28.4404 19.8418 29.2959 20.2988 29.917C20.7617 30.5381 21.3828 30.8486 22.1621 30.8486C23.1289 30.8486 23.8672 30.4209 24.377 29.5654V24.9072C23.8613 24.0693 23.1289 23.6504 22.1797 23.6504C21.3945 23.6504 20.7705 23.9639 20.3076 24.5908C19.8447 25.2119 19.6133 26.1318 19.6133 27.3506ZM36.8311 32H28.4463V30.8311L32.876 25.9092C33.5322 25.165 33.9834 24.5615 34.2295 24.0986C34.4814 23.6299 34.6074 23.1465 34.6074 22.6484C34.6074 21.9805 34.4053 21.4326 34.001 21.0049C33.5967 20.5771 33.0576 20.3633 32.3838 20.3633C31.5752 20.3633 30.9453 20.5947 30.4941 21.0576C30.0488 21.5146 29.8262 22.1533 29.8262 22.9736H28.2002C28.2002 21.7959 28.5781 20.8438 29.334 20.1172C30.0957 19.3906 31.1123 19.0273 32.3838 19.0273C33.5732 19.0273 34.5137 19.3408 35.2051 19.9678C35.8965 20.5889 36.2422 21.418 36.2422 22.4551C36.2422 23.7148 35.4395 25.2148 33.834 26.9551L30.4062 30.6729H36.8311V32ZM38.668 34.5488L37.7451 33.916C38.2959 33.1484 38.583 32.3574 38.6064 31.543V30.0752H40.1973V31.3496C40.1973 31.9414 40.0508 32.5332 39.7578 33.125C39.4707 33.7168 39.1074 34.1914 38.668 34.5488ZM48.125 32C48.0312 31.8125 47.9551 31.4785 47.8965 30.998C47.1406 31.7832 46.2383 32.1758 45.1895 32.1758C44.252 32.1758 43.4814 31.9121 42.8779 31.3848C42.2803 30.8516 41.9814 30.1777 41.9814 29.3633C41.9814 28.373 42.3564 27.6055 43.1064 27.0605C43.8623 26.5098 44.9229 26.2344 46.2881 26.2344H47.8701V25.4873C47.8701 24.9189 47.7002 24.4678 47.3604 24.1338C47.0205 23.7939 46.5195 23.624 45.8574 23.624C45.2773 23.624 44.791 23.7705 44.3984 24.0635C44.0059 24.3564 43.8096 24.7109 43.8096 25.127H42.1748C42.1748 24.6523 42.3418 24.1953 42.6758 23.7559C43.0156 23.3105 43.4727 22.959 44.0469 22.7012C44.627 22.4434 45.2627 22.3145 45.9541 22.3145C47.0498 22.3145 47.9082 22.5898 48.5293 23.1406C49.1504 23.6855 49.4727 24.4385 49.4961 25.3994V29.7764C49.4961 30.6494 49.6074 31.3438 49.8301 31.8594V32H48.125ZM45.4268 30.7607C45.9365 30.7607 46.4199 30.6289 46.877 30.3652C47.334 30.1016 47.665 29.7588 47.8701 29.3369V27.3857H46.5957C44.6035 27.3857 43.6074 27.9688 43.6074 29.1348C43.6074 29.6445 43.7773 30.043 44.1172 30.3301C44.457 30.6172 44.8936 30.7607 45.4268 30.7607ZM55.7979 26.8936C55.7979 28.2002 55.625 29.4541 55.2793 30.6553C54.9395 31.8506 54.415 32.9551 53.7061 33.9688C53.0029 34.9824 52.2646 35.7031 51.4912 36.1309L51.1484 35.1377C52.0508 34.4463 52.7744 33.374 53.3193 31.9209C53.8701 30.4619 54.1514 28.8447 54.1631 27.0693V26.7881C54.1631 25.5576 54.0342 24.415 53.7764 23.3604C53.5186 22.2998 53.1582 21.3506 52.6953 20.5127C52.2383 19.6748 51.7227 19.0215 51.1484 18.5527L51.4912 17.5596C52.2646 17.9873 53 18.7021 53.6973 19.7041C54.4004 20.7061 54.9248 21.8105 55.2705 23.0176C55.6221 24.2246 55.7979 25.5166 55.7979 26.8936ZM65.7383 24.8457H58.4082V23.4307H65.7383V24.8457ZM65.7383 28.4932H58.4082V27.0869H65.7383V28.4932ZM68.1201 26.8057C68.1201 25.4814 68.2959 24.21 68.6475 22.9912C69.0049 21.7725 69.5352 20.665 70.2383 19.6689C70.9414 18.6729 71.6709 17.9697 72.4268 17.5596L72.7607 18.6318C71.9053 19.2881 71.2021 20.29 70.6514 21.6377C70.1064 22.9854 69.8076 24.4941 69.7549 26.1641L69.7461 26.9111C69.7461 29.1729 70.1592 31.1357 70.9854 32.7998C71.4834 33.7959 72.0752 34.5752 72.7607 35.1377L72.4268 36.1309C71.6475 35.6973 70.9033 34.9707 70.1943 33.9512C68.8115 31.959 68.1201 29.5771 68.1201 26.8057ZM73.9385 27.166C73.9385 25.6719 74.2812 24.4912 74.9668 23.624C75.6523 22.751 76.5723 22.3145 77.7266 22.3145C78.8516 22.3145 79.7393 22.6924 80.3896 23.4482L80.46 22.4902H81.9541V35.6562H80.3281V31.1211C79.6719 31.8242 78.7988 32.1758 77.709 32.1758C76.5605 32.1758 75.6436 31.7305 74.958 30.8398C74.2783 29.9434 73.9385 28.7568 73.9385 27.2803V27.166ZM75.5645 27.3506C75.5645 28.4404 75.793 29.2959 76.25 29.917C76.7129 30.5381 77.334 30.8486 78.1133 30.8486C79.0801 30.8486 79.8184 30.4209 80.3281 29.5654V24.9072C79.8125 24.0693 79.0801 23.6504 78.1309 23.6504C77.3457 23.6504 76.7217 23.9639 76.2588 24.5908C75.7959 25.2119 75.5645 26.1318 75.5645 27.3506ZM92.7822 32H84.3975V30.8311L88.8271 25.9092C89.4834 25.165 89.9346 24.5615 90.1807 24.0986C90.4326 23.6299 90.5586 23.1465 90.5586 22.6484C90.5586 21.9805 90.3564 21.4326 89.9521 21.0049C89.5479 20.5771 89.0088 20.3633 88.335 20.3633C87.5264 20.3633 86.8965 20.5947 86.4453 21.0576C86 21.5146 85.7773 22.1533 85.7773 22.9736H84.1514C84.1514 21.7959 84.5293 20.8438 85.2852 20.1172C86.0469 19.3906 87.0635 19.0273 88.335 19.0273C89.5244 19.0273 90.4648 19.3408 91.1562 19.9678C91.8477 20.5889 92.1934 21.418 92.1934 22.4551C92.1934 23.7148 91.3906 25.2148 89.7852 26.9551L86.3574 30.6729H92.7822V32ZM94.6191 34.5488L93.6963 33.916C94.2471 33.1484 94.5342 32.3574 94.5576 31.543V30.0752H96.1484V31.3496C96.1484 31.9414 96.002 32.5332 95.709 33.125C95.4219 33.7168 95.0586 34.1914 94.6191 34.5488ZM104.076 32C103.982 31.8125 103.906 31.4785 103.848 30.998C103.092 31.7832 102.189 32.1758 101.141 32.1758C100.203 32.1758 99.4326 31.9121 98.8291 31.3848C98.2314 30.8516 97.9326 30.1777 97.9326 29.3633C97.9326 28.373 98.3076 27.6055 99.0576 27.0605C99.8135 26.5098 100.874 26.2344 102.239 26.2344H103.821V25.4873C103.821 24.9189 103.651 24.4678 103.312 24.1338C102.972 23.7939 102.471 23.624 101.809 23.624C101.229 23.624 100.742 23.7705 100.35 24.0635C99.957 24.3564 99.7607 24.7109 99.7607 25.127H98.126C98.126 24.6523 98.293 24.1953 98.627 23.7559C98.9668 23.3105 99.4238 22.959 99.998 22.7012C100.578 22.4434 101.214 22.3145 101.905 22.3145C103.001 22.3145 103.859 22.5898 104.48 23.1406C105.102 23.6855 105.424 24.4385 105.447 25.3994V29.7764C105.447 30.6494 105.559 31.3438 105.781 31.8594V32H104.076ZM101.378 30.7607C101.888 30.7607 102.371 30.6289 102.828 30.3652C103.285 30.1016 103.616 29.7588 103.821 29.3369V27.3857H102.547C100.555 27.3857 99.5586 27.9688 99.5586 29.1348C99.5586 29.6445 99.7285 30.043 100.068 30.3301C100.408 30.6172 100.845 30.7607 101.378 30.7607ZM107.943 34.5488L107.021 33.916C107.571 33.1484 107.858 32.3574 107.882 31.543V30.0752H109.473V31.3496C109.473 31.9414 109.326 32.5332 109.033 33.125C108.746 33.7168 108.383 34.1914 107.943 34.5488ZM113.48 30.6201H119.545V32H111.784V19.2031H113.48V30.6201ZM124.968 26.8936C124.968 28.2002 124.795 29.4541 124.449 30.6553C124.109 31.8506 123.585 32.9551 122.876 33.9688C122.173 34.9824 121.435 35.7031 120.661 36.1309L120.318 35.1377C121.221 34.4463 121.944 33.374 122.489 31.9209C123.04 30.4619 123.321 28.8447 123.333 27.0693V26.7881C123.333 25.5576 123.204 24.415 122.946 23.3604C122.688 22.2998 122.328 21.3506 121.865 20.5127C121.408 19.6748 120.893 19.0215 120.318 18.5527L120.661 17.5596C121.435 17.9873 122.17 18.7021 122.867 19.7041C123.57 20.7061 124.095 21.8105 124.44 23.0176C124.792 24.2246 124.968 25.5166 124.968 26.8936Z" fill="black"/>
</svg>
