<svg width="217" height="150" viewBox="0 0 217 150" fill="none" xmlns="http://www.w3.org/2000/svg">
<path d="M48.1689 61.8057C48.1689 60.4814 48.3447 59.21 48.6963 57.9912C49.0537 56.7725 49.584 55.665 50.2871 54.6689C50.9902 53.6729 51.7197 52.9697 52.4756 52.5596L52.8096 53.6318C51.9541 54.2881 51.251 55.29 50.7002 56.6377C50.1553 57.9854 49.8564 59.4941 49.8037 61.1641L49.7949 61.9111C49.7949 64.1729 50.208 66.1357 51.0342 67.7998C51.5322 68.7959 52.124 69.5752 52.8096 70.1377L52.4756 71.1309C51.6963 70.6973 50.9521 69.9707 50.2432 68.9512C48.8604 66.959 48.1689 64.5771 48.1689 61.8057ZM53.9873 62.166C53.9873 60.6719 54.3301 59.4912 55.0156 58.624C55.7012 57.751 56.6211 57.3145 57.7754 57.3145C58.9004 57.3145 59.7881 57.6924 60.4385 58.4482L60.5088 57.4902H62.0029V70.6562H60.377V66.1211C59.7207 66.8242 58.8477 67.1758 57.7578 67.1758C56.6094 67.1758 55.6924 66.7305 55.0068 65.8398C54.3271 64.9434 53.9873 63.7568 53.9873 62.2803V62.166ZM55.6133 62.3506C55.6133 63.4404 55.8418 64.2959 56.2988 64.917C56.7617 65.5381 57.3828 65.8486 58.1621 65.8486C59.1289 65.8486 59.8672 65.4209 60.377 64.5654V59.9072C59.8613 59.0693 59.1289 58.6504 58.1797 58.6504C57.3945 58.6504 56.7705 58.9639 56.3076 59.5908C55.8447 60.2119 55.6133 61.1318 55.6133 62.3506ZM72.8311 67H64.4463V65.8311L68.876 60.9092C69.5322 60.165 69.9834 59.5615 70.2295 59.0986C70.4814 58.6299 70.6074 58.1465 70.6074 57.6484C70.6074 56.9805 70.4053 56.4326 70.001 56.0049C69.5967 55.5771 69.0576 55.3633 68.3838 55.3633C67.5752 55.3633 66.9453 55.5947 66.4941 56.0576C66.0488 56.5146 65.8262 57.1533 65.8262 57.9736H64.2002C64.2002 56.7959 64.5781 55.8438 65.334 55.1172C66.0957 54.3906 67.1123 54.0273 68.3838 54.0273C69.5732 54.0273 70.5137 54.3408 71.2051 54.9678C71.8965 55.5889 72.2422 56.418 72.2422 57.4551C72.2422 58.7148 71.4395 60.2148 69.834 61.9551L66.4062 65.6729H72.8311V67ZM74.668 69.5488L73.7451 68.916C74.2959 68.1484 74.583 67.3574 74.6064 66.543V65.0752H76.1973V66.3496C76.1973 66.9414 76.0508 67.5332 75.7578 68.125C75.4707 68.7168 75.1074 69.1914 74.668 69.5488ZM79.3174 53.6582C79.8916 53.6582 80.3545 53.7754 80.7061 54.0098C81.0576 54.2441 81.3301 54.6396 81.5234 55.1963L85.2764 64.9434C85.3936 65.2422 85.5166 65.4502 85.6455 65.5674C85.7803 65.6787 85.9502 65.7344 86.1553 65.7344L86.4893 65.708L86.542 67.0439C86.3311 67.1143 86.1025 67.1494 85.8564 67.1494C85.4053 67.1494 85.0654 67.0967 84.8369 66.9912C84.6084 66.8799 84.4033 66.6982 84.2217 66.4463C84.04 66.1943 83.8643 65.834 83.6943 65.3652L81.6729 60.1533L79.1592 67H77.3486L80.8115 57.9561L79.9678 55.8906C79.833 55.5625 79.6865 55.3311 79.5283 55.1963C79.376 55.0615 79.168 54.9941 78.9043 54.9941L78.4912 55.0117L78.4824 53.7637C78.7285 53.6934 79.0068 53.6582 79.3174 53.6582ZM91.9736 61.8936C91.9736 63.2002 91.8008 64.4541 91.4551 65.6553C91.1152 66.8506 90.5908 67.9551 89.8818 68.9688C89.1787 69.9824 88.4404 70.7031 87.667 71.1309L87.3242 70.1377C88.2266 69.4463 88.9502 68.374 89.4951 66.9209C90.0459 65.4619 90.3271 63.8447 90.3389 62.0693V61.7881C90.3389 60.5576 90.21 59.415 89.9521 58.3604C89.6943 57.2998 89.334 56.3506 88.8711 55.5127C88.4141 54.6748 87.8984 54.0215 87.3242 53.5527L87.667 52.5596C88.4404 52.9873 89.1758 53.7021 89.873 54.7041C90.5762 55.7061 91.1006 56.8105 91.4463 58.0176C91.7979 59.2246 91.9736 60.5166 91.9736 61.8936ZM101.914 59.8457H94.584V58.4307H101.914V59.8457ZM101.914 63.4932H94.584V62.0869H101.914V63.4932ZM108.761 61.8057C108.761 60.4814 108.937 59.21 109.288 57.9912C109.646 56.7725 110.176 55.665 110.879 54.6689C111.582 53.6729 112.312 52.9697 113.067 52.5596L113.401 53.6318C112.546 54.2881 111.843 55.29 111.292 56.6377C110.747 57.9854 110.448 59.4941 110.396 61.1641L110.387 61.9111C110.387 64.1729 110.8 66.1357 111.626 67.7998C112.124 68.7959 112.716 69.5752 113.401 70.1377L113.067 71.1309C112.288 70.6973 111.544 69.9707 110.835 68.9512C109.452 66.959 108.761 64.5771 108.761 61.8057ZM114.579 62.166C114.579 60.6719 114.922 59.4912 115.607 58.624C116.293 57.751 117.213 57.3145 118.367 57.3145C119.492 57.3145 120.38 57.6924 121.03 58.4482L121.101 57.4902H122.595V70.6562H120.969V66.1211C120.312 66.8242 119.439 67.1758 118.35 67.1758C117.201 67.1758 116.284 66.7305 115.599 65.8398C114.919 64.9434 114.579 63.7568 114.579 62.2803V62.166ZM116.205 62.3506C116.205 63.4404 116.434 64.2959 116.891 64.917C117.354 65.5381 117.975 65.8486 118.754 65.8486C119.721 65.8486 120.459 65.4209 120.969 64.5654V59.9072C120.453 59.0693 119.721 58.6504 118.771 58.6504C117.986 58.6504 117.362 58.9639 116.899 59.5908C116.437 60.2119 116.205 61.1318 116.205 62.3506ZM127.402 59.8105H128.624C129.392 59.7988 129.995 59.5967 130.435 59.2041C130.874 58.8115 131.094 58.2812 131.094 57.6133C131.094 56.1133 130.347 55.3633 128.853 55.3633C128.149 55.3633 127.587 55.5654 127.165 55.9697C126.749 56.3682 126.541 56.8984 126.541 57.5605H124.915C124.915 56.5469 125.284 55.7061 126.022 55.0381C126.767 54.3643 127.71 54.0273 128.853 54.0273C130.06 54.0273 131.006 54.3467 131.691 54.9854C132.377 55.624 132.72 56.5117 132.72 57.6484C132.72 58.2051 132.538 58.7441 132.175 59.2656C131.817 59.7871 131.328 60.1768 130.707 60.4346C131.41 60.6572 131.952 61.0264 132.333 61.542C132.72 62.0576 132.913 62.6875 132.913 63.4316C132.913 64.5801 132.538 65.4912 131.788 66.165C131.038 66.8389 130.062 67.1758 128.861 67.1758C127.66 67.1758 126.682 66.8506 125.926 66.2002C125.176 65.5498 124.801 64.6914 124.801 63.625H126.436C126.436 64.2988 126.655 64.8379 127.095 65.2422C127.534 65.6465 128.123 65.8486 128.861 65.8486C129.646 65.8486 130.247 65.6436 130.663 65.2334C131.079 64.8232 131.287 64.2344 131.287 63.4668C131.287 62.7227 131.059 62.1514 130.602 61.7529C130.145 61.3545 129.485 61.1494 128.624 61.1377H127.402V59.8105ZM135.26 69.5488L134.337 68.916C134.888 68.1484 135.175 67.3574 135.198 66.543V65.0752H136.789V66.3496C136.789 66.9414 136.643 67.5332 136.35 68.125C136.062 68.7168 135.699 69.1914 135.26 69.5488ZM139.909 53.6582C140.483 53.6582 140.946 53.7754 141.298 54.0098C141.649 54.2441 141.922 54.6396 142.115 55.1963L145.868 64.9434C145.985 65.2422 146.108 65.4502 146.237 65.5674C146.372 65.6787 146.542 65.7344 146.747 65.7344L147.081 65.708L147.134 67.0439C146.923 67.1143 146.694 67.1494 146.448 67.1494C145.997 67.1494 145.657 67.0967 145.429 66.9912C145.2 66.8799 144.995 66.6982 144.813 66.4463C144.632 66.1943 144.456 65.834 144.286 65.3652L142.265 60.1533L139.751 67H137.94L141.403 57.9561L140.56 55.8906C140.425 55.5625 140.278 55.3311 140.12 55.1963C139.968 55.0615 139.76 54.9941 139.496 54.9941L139.083 55.0117L139.074 53.7637C139.32 53.6934 139.599 53.6582 139.909 53.6582ZM148.76 69.5488L147.837 68.916C148.388 68.1484 148.675 67.3574 148.698 66.543V65.0752H150.289V66.3496C150.289 66.9414 150.143 67.5332 149.85 68.125C149.562 68.7168 149.199 69.1914 148.76 69.5488ZM157.294 61.8232H154.288V67H152.592V54.2031H156.828C158.27 54.2031 159.377 54.5312 160.15 55.1875C160.93 55.8438 161.319 56.7988 161.319 58.0527C161.319 58.8496 161.103 59.5439 160.669 60.1357C160.241 60.7275 159.644 61.1699 158.876 61.4629L161.882 66.8945V67H160.071L157.294 61.8232ZM154.288 60.4434H156.881C157.719 60.4434 158.384 60.2266 158.876 59.793C159.374 59.3594 159.623 58.7793 159.623 58.0527C159.623 57.2617 159.386 56.6553 158.911 56.2334C158.442 55.8115 157.763 55.5977 156.872 55.5918H154.288V60.4434ZM167.19 61.8936C167.19 63.2002 167.018 64.4541 166.672 65.6553C166.332 66.8506 165.808 67.9551 165.099 68.9688C164.396 69.9824 163.657 70.7031 162.884 71.1309L162.541 70.1377C163.443 69.4463 164.167 68.374 164.712 66.9209C165.263 65.4619 165.544 63.8447 165.556 62.0693V61.7881C165.556 60.5576 165.427 59.415 165.169 58.3604C164.911 57.2998 164.551 56.3506 164.088 55.5127C163.631 54.6748 163.115 54.0215 162.541 53.5527L162.884 52.5596C163.657 52.9873 164.393 53.7021 165.09 54.7041C165.793 55.7061 166.317 56.8105 166.663 58.0176C167.015 59.2246 167.19 60.5166 167.19 61.8936Z" fill="black"/>
<path d="M191.061 76.0607C191.646 75.4749 191.646 74.5251 191.061 73.9393L181.515 64.3934C180.929 63.8076 179.979 63.8076 179.393 64.3934C178.808 64.9792 178.808 65.9289 179.393 66.5147L187.879 75L179.393 83.4853C178.808 84.0711 178.808 85.0208 179.393 85.6066C179.979 86.1924 180.929 86.1924 181.515 85.6066L191.061 76.0607ZM33 76.5H190V73.5H33V76.5Z" fill="black"/>
</svg>
