<svg width="217" height="150" viewBox="0 0 217 150" fill="none" xmlns="http://www.w3.org/2000/svg">
<path d="M48.1689 61.8057C48.1689 60.4814 48.3447 59.21 48.6963 57.9912C49.0537 56.7725 49.584 55.665 50.2871 54.6689C50.9902 53.6729 51.7197 52.9697 52.4756 52.5596L52.8096 53.6318C51.9541 54.2881 51.251 55.29 50.7002 56.6377C50.1553 57.9854 49.8564 59.4941 49.8037 61.1641L49.7949 61.9111C49.7949 64.1729 50.208 66.1357 51.0342 67.7998C51.5322 68.7959 52.124 69.5752 52.8096 70.1377L52.4756 71.1309C51.6963 70.6973 50.9521 69.9707 50.2432 68.9512C48.8604 66.959 48.1689 64.5771 48.1689 61.8057ZM53.9873 62.166C53.9873 60.6719 54.3301 59.4912 55.0156 58.624C55.7012 57.751 56.6211 57.3145 57.7754 57.3145C58.9004 57.3145 59.7881 57.6924 60.4385 58.4482L60.5088 57.4902H62.0029V70.6562H60.377V66.1211C59.7207 66.8242 58.8477 67.1758 57.7578 67.1758C56.6094 67.1758 55.6924 66.7305 55.0068 65.8398C54.3271 64.9434 53.9873 63.7568 53.9873 62.2803V62.166ZM55.6133 62.3506C55.6133 63.4404 55.8418 64.2959 56.2988 64.917C56.7617 65.5381 57.3828 65.8486 58.1621 65.8486C59.1289 65.8486 59.8672 65.4209 60.377 64.5654V59.9072C59.8613 59.0693 59.1289 58.6504 58.1797 58.6504C57.3945 58.6504 56.7705 58.9639 56.3076 59.5908C55.8447 60.2119 55.6133 61.1318 55.6133 62.3506ZM69.79 67H68.1553V56.1631L64.877 57.3672V55.8906L69.5352 54.1416H69.79V67ZM74.668 69.5488L73.7451 68.916C74.2959 68.1484 74.583 67.3574 74.6064 66.543V65.0752H76.1973V66.3496C76.1973 66.9414 76.0508 67.5332 75.7578 68.125C75.4707 68.7168 75.1074 69.1914 74.668 69.5488ZM78.5088 67V54.2031H82.6924C84.0811 54.2031 85.124 54.4902 85.8213 55.0645C86.5244 55.6387 86.876 56.4883 86.876 57.6133C86.876 58.2109 86.7061 58.7412 86.3662 59.2041C86.0264 59.6611 85.5635 60.0156 84.9775 60.2676C85.6689 60.4609 86.2139 60.8301 86.6123 61.375C87.0166 61.9141 87.2188 62.5586 87.2188 63.3086C87.2188 64.457 86.8467 65.3594 86.1025 66.0156C85.3584 66.6719 84.3066 67 82.9473 67H78.5088ZM80.1963 61.0146V65.6201H82.9824C83.7676 65.6201 84.3857 65.418 84.8369 65.0137C85.2939 64.6035 85.5225 64.041 85.5225 63.3262C85.5225 61.7852 84.6846 61.0146 83.0088 61.0146H80.1963ZM80.1963 59.6611H82.7451C83.4834 59.6611 84.0723 59.4766 84.5117 59.1074C84.957 58.7383 85.1797 58.2373 85.1797 57.6045C85.1797 56.9014 84.9746 56.3916 84.5645 56.0752C84.1543 55.7529 83.5303 55.5918 82.6924 55.5918H80.1963V59.6611ZM93.2217 61.8936C93.2217 63.2002 93.0488 64.4541 92.7031 65.6553C92.3633 66.8506 91.8389 67.9551 91.1299 68.9688C90.4268 69.9824 89.6885 70.7031 88.915 71.1309L88.5723 70.1377C89.4746 69.4463 90.1982 68.374 90.7432 66.9209C91.2939 65.4619 91.5752 63.8447 91.5869 62.0693V61.7881C91.5869 60.5576 91.458 59.415 91.2002 58.3604C90.9424 57.2998 90.582 56.3506 90.1191 55.5127C89.6621 54.6748 89.1465 54.0215 88.5723 53.5527L88.915 52.5596C89.6885 52.9873 90.4238 53.7021 91.1211 54.7041C91.8242 55.7061 92.3486 56.8105 92.6943 58.0176C93.0459 59.2246 93.2217 60.5166 93.2217 61.8936ZM103.162 59.8457H95.832V58.4307H103.162V59.8457ZM103.162 63.4932H95.832V62.0869H103.162V63.4932ZM110.009 61.8057C110.009 60.4814 110.185 59.21 110.536 57.9912C110.894 56.7725 111.424 55.665 112.127 54.6689C112.83 53.6729 113.56 52.9697 114.315 52.5596L114.649 53.6318C113.794 54.2881 113.091 55.29 112.54 56.6377C111.995 57.9854 111.696 59.4941 111.644 61.1641L111.635 61.9111C111.635 64.1729 112.048 66.1357 112.874 67.7998C113.372 68.7959 113.964 69.5752 114.649 70.1377L114.315 71.1309C113.536 70.6973 112.792 69.9707 112.083 68.9512C110.7 66.959 110.009 64.5771 110.009 61.8057ZM115.827 62.166C115.827 60.6719 116.17 59.4912 116.855 58.624C117.541 57.751 118.461 57.3145 119.615 57.3145C120.74 57.3145 121.628 57.6924 122.278 58.4482L122.349 57.4902H123.843V70.6562H122.217V66.1211C121.561 66.8242 120.688 67.1758 119.598 67.1758C118.449 67.1758 117.532 66.7305 116.847 65.8398C116.167 64.9434 115.827 63.7568 115.827 62.2803V62.166ZM117.453 62.3506C117.453 63.4404 117.682 64.2959 118.139 64.917C118.602 65.5381 119.223 65.8486 120.002 65.8486C120.969 65.8486 121.707 65.4209 122.217 64.5654V59.9072C121.701 59.0693 120.969 58.6504 120.02 58.6504C119.234 58.6504 118.61 58.9639 118.147 59.5908C117.685 60.2119 117.453 61.1318 117.453 62.3506ZM134.671 67H126.286V65.8311L130.716 60.9092C131.372 60.165 131.823 59.5615 132.069 59.0986C132.321 58.6299 132.447 58.1465 132.447 57.6484C132.447 56.9805 132.245 56.4326 131.841 56.0049C131.437 55.5771 130.897 55.3633 130.224 55.3633C129.415 55.3633 128.785 55.5947 128.334 56.0576C127.889 56.5146 127.666 57.1533 127.666 57.9736H126.04C126.04 56.7959 126.418 55.8438 127.174 55.1172C127.936 54.3906 128.952 54.0273 130.224 54.0273C131.413 54.0273 132.354 54.3408 133.045 54.9678C133.736 55.5889 134.082 56.418 134.082 57.4551C134.082 58.7148 133.279 60.2148 131.674 61.9551L128.246 65.6729H134.671V67ZM136.508 69.5488L135.585 68.916C136.136 68.1484 136.423 67.3574 136.446 66.543V65.0752H138.037V66.3496C138.037 66.9414 137.891 67.5332 137.598 68.125C137.311 68.7168 136.947 69.1914 136.508 69.5488ZM140.349 67V54.2031H144.532C145.921 54.2031 146.964 54.4902 147.661 55.0645C148.364 55.6387 148.716 56.4883 148.716 57.6133C148.716 58.2109 148.546 58.7412 148.206 59.2041C147.866 59.6611 147.403 60.0156 146.817 60.2676C147.509 60.4609 148.054 60.8301 148.452 61.375C148.856 61.9141 149.059 62.5586 149.059 63.3086C149.059 64.457 148.687 65.3594 147.942 66.0156C147.198 66.6719 146.146 67 144.787 67H140.349ZM142.036 61.0146V65.6201H144.822C145.607 65.6201 146.226 65.418 146.677 65.0137C147.134 64.6035 147.362 64.041 147.362 63.3262C147.362 61.7852 146.524 61.0146 144.849 61.0146H142.036ZM142.036 59.6611H144.585C145.323 59.6611 145.912 59.4766 146.352 59.1074C146.797 58.7383 147.02 58.2373 147.02 57.6045C147.02 56.9014 146.814 56.3916 146.404 56.0752C145.994 55.7529 145.37 55.5918 144.532 55.5918H142.036V59.6611ZM151.256 69.5488L150.333 68.916C150.884 68.1484 151.171 67.3574 151.194 66.543V65.0752H152.785V66.3496C152.785 66.9414 152.639 67.5332 152.346 68.125C152.059 68.7168 151.695 69.1914 151.256 69.5488ZM156.793 65.6201H162.857V67H155.097V54.2031H156.793V65.6201ZM168.28 61.8936C168.28 63.2002 168.107 64.4541 167.762 65.6553C167.422 66.8506 166.897 67.9551 166.188 68.9688C165.485 69.9824 164.747 70.7031 163.974 71.1309L163.631 70.1377C164.533 69.4463 165.257 68.374 165.802 66.9209C166.353 65.4619 166.634 63.8447 166.646 62.0693V61.7881C166.646 60.5576 166.517 59.415 166.259 58.3604C166.001 57.2998 165.641 56.3506 165.178 55.5127C164.721 54.6748 164.205 54.0215 163.631 53.5527L163.974 52.5596C164.747 52.9873 165.482 53.7021 166.18 54.7041C166.883 55.7061 167.407 56.8105 167.753 58.0176C168.104 59.2246 168.28 60.5166 168.28 61.8936Z" fill="black"/>
<path d="M191.061 76.0607C191.646 75.4749 191.646 74.5251 191.061 73.9393L181.515 64.3934C180.929 63.8076 179.979 63.8076 179.393 64.3934C178.808 64.9792 178.808 65.9289 179.393 66.5147L187.879 75L179.393 83.4853C178.808 84.0711 178.808 85.0208 179.393 85.6066C179.979 86.1924 180.929 86.1924 181.515 85.6066L191.061 76.0607ZM33 76.5H190V73.5H33V76.5Z" fill="black"/>
</svg>
